<svg width="607" height="609" viewBox="0 0 607 609" fill="none" xmlns="http://www.w3.org/2000/svg">
<path d="M400.182 97.4647C400.648 94.5897 403.767 93.1359 406.427 93.2138C446.733 93.1489 487.045 93.1618 527.358 93.1099C530.069 93.2332 533.35 92.4155 535.433 94.6805C531.603 93.2008 527.474 93.8303 523.482 93.7654C486.812 93.7784 450.143 93.7979 413.48 93.8109C410.671 93.8368 407.857 93.6875 405.061 93.9211C402.641 94.0315 400.596 96.2315 400.473 98.6198C400.312 101.975 400.506 105.343 400.428 108.699H400.001C400.111 104.96 399.716 101.19 400.182 97.4647ZM535.841 94.9985C537.653 96.2575 537.498 98.6133 537.569 100.573C537.556 126.111 537.556 151.655 537.582 177.199C537.575 179.068 537.413 181.177 535.873 182.469C533.699 184.831 530.205 184.098 527.352 184.195C503.358 184.156 479.358 184.104 455.358 184.208C455.086 188.732 455.345 193.262 455.235 197.785C455.158 197.967 455.009 198.324 454.931 198.499L454.621 198.966C454.213 186.519 454.633 174.052 454.556 161.597C454.646 148.501 454.407 135.398 454.672 122.308C455.19 119.18 455.184 116 455.074 112.839C455.475 114.851 455.326 116.908 455.358 118.953C477.637 118.959 499.922 118.914 522.201 118.933C522.99 118.745 524.608 119.18 524.711 117.992C525.028 114.637 524.977 111.217 524.705 107.861C524.504 106.693 523.023 107.044 522.207 106.901C485.564 106.979 448.92 106.888 412.276 107.018L412.27 106.499C447.186 106.589 482.108 106.473 517.024 106.531C519.503 106.589 522.007 106.362 524.479 106.7C526.057 108.238 525.035 110.918 525.339 112.93C525.035 114.942 525.967 117.544 524.498 119.16C501.482 119.4 478.446 119.212 455.423 119.264C455.287 123.664 455.196 128.071 455.501 132.464C477.734 132.536 499.974 132.464 522.214 132.451C523.184 132.601 524.582 132.224 525.113 133.334C525.494 137.066 525.262 140.83 525.177 144.575C524.265 145.159 523.268 145.691 522.149 145.632C499.909 145.847 477.656 145.457 455.416 145.769C455.294 149.786 455.255 153.81 455.404 157.833C477.676 157.885 499.955 157.846 522.227 157.82C523.683 157.652 525.378 158.69 525.132 160.332C525.054 163.927 525.52 167.607 524.66 171.138C501.572 171.43 478.472 171.164 455.378 171.228C455.222 175.408 455.158 179.594 455.378 183.773C479.798 183.67 504.225 183.806 528.646 183.741C530.839 183.682 533.324 183.858 535.155 182.385C536.902 181.022 537.284 178.633 537.239 176.544C537.142 151.662 537.155 126.773 537.193 101.891C537.303 99.5024 536.695 97.1921 535.841 94.9985ZM455.423 132.899C455.281 136.93 455.281 140.96 455.397 144.99C477.223 145.107 499.055 145.055 520.887 145.042C522.266 144.893 524.711 145.425 524.789 143.361C524.957 140.012 525.151 136.599 524.601 133.282C523.443 132.75 522.117 132.984 520.894 132.893C499.068 132.912 477.242 132.782 455.423 132.899ZM455.442 158.249C455.177 162.428 455.306 166.621 455.391 170.8C478.375 170.722 501.365 170.878 524.343 170.703C524.589 166.835 524.744 162.915 524.369 159.053C523.495 158.028 522.091 158.301 520.913 158.223C499.094 158.288 477.268 158.294 455.442 158.249ZM439.997 263.592C465.673 263.501 491.355 263.384 517.031 263.612L517.063 264.481C491.361 264.319 465.66 264.416 439.958 264.481L439.997 263.592ZM456.419 532.013C458.309 534.791 460.496 537.406 463.104 539.541C466.973 542.923 471.567 545.285 475.722 548.27C474.227 549.977 472.81 551.762 471.516 553.624C473.263 552.034 475.036 550.47 476.906 549.01C477.935 549.672 478.97 550.334 480.005 551.015C481.726 552.151 483.461 553.293 485.02 554.663C486.974 557.693 490.915 558.777 492.623 562.042C492.966 564.125 490.87 565.358 489.265 566.085C485.984 567.61 482.289 567.013 478.84 566.662C475.359 566.286 471.884 565.734 468.539 564.683C468.817 561.224 469.976 557.953 470.946 554.656C468.934 557.817 468.656 561.633 467.53 565.137C473.185 566.318 478.912 567.188 484.677 567.61C488.443 567.837 492.131 565.838 493.969 562.522C494.577 565.702 492.021 568.168 489.439 569.479C486.508 570.92 483.163 570.199 480.031 570.297C475.469 569.914 470.985 568.979 466.527 567.973C465.802 570.79 463.984 573.782 460.722 573.782C451.333 574.191 441.931 573.178 432.627 572.029C424.797 570.887 416.948 569.674 409.319 567.551C407.404 566.838 404.919 566.422 403.903 564.436C403.761 562.282 404.181 560.153 404.343 558.018C404.686 554.273 405.365 550.561 406.414 546.953C411.221 547.952 416.482 548.471 421.031 546.206C424.344 544.85 426.725 541.955 427.98 538.659C428.304 539.145 428.654 539.632 429.029 540.106C430.148 541.079 431.352 541.955 432.562 542.832C434.477 544.246 436.496 545.531 438.644 546.583C438.547 545.019 438.424 543.468 438.165 541.936C441.582 544.577 446.345 543.409 449.761 541.365C453.268 539.463 456.109 536.128 456.419 532.013ZM440.644 568.999C428.757 568.006 417.052 565.566 405.624 562.197C408.161 564.002 411.403 564.092 414.301 564.982C422.396 567.214 430.75 568.142 439.033 569.369C446.15 569.92 453.307 570.972 460.444 570.089C461.628 569.959 462.644 569.31 463.557 568.583C456.484 570.985 448.965 569.726 441.705 569.2C441.783 566.182 443.252 563.489 444.617 560.88C445.872 558.524 447.91 556.7 449.095 554.293C444.565 557.953 442.468 563.651 440.644 568.999Z" fill="#5B6D87"/>
<path d="M410.626 108.751C410.846 108.186 411.079 107.621 411.318 107.063C411.402 107.505 411.577 108.394 411.661 108.835C424.13 108.777 436.606 108.744 449.075 108.835C451.65 108.679 454.342 110.295 455.073 112.839C455.183 116 455.19 119.18 454.672 122.308C404.66 122.198 354.641 122.301 304.629 122.263C304.597 121.983 304.532 121.425 304.5 121.146C304.603 117.499 303.244 112.768 306.493 110.101C307.392 109.211 308.68 108.997 309.896 109.023C325.872 109.075 341.855 108.699 357.831 108.816C371.892 108.77 385.947 108.861 400.001 108.699H400.428C403.825 108.764 407.222 108.803 410.626 108.751ZM448.557 110.081C407.093 110.444 365.622 110.049 324.164 110.36C318.968 111.353 313.662 109.354 308.537 110.834C306.402 111.282 306.124 113.715 305.878 115.5C305.755 117.155 305.153 119.069 306.266 120.53C308.492 121.211 310.886 120.815 313.183 120.88C356.537 120.64 399.891 120.835 443.245 120.815C446.616 120.705 450.072 121.276 453.397 120.543C454.692 118.459 454.187 115.812 453.689 113.553C453.262 111.223 450.693 110.113 448.557 110.081Z" fill="#384C74"/>
<path d="M448.557 110.081C450.693 110.114 453.262 111.223 453.689 113.553C454.187 115.812 454.692 118.459 453.398 120.543C450.072 121.276 446.616 120.705 443.245 120.815C399.891 120.835 356.537 120.64 313.183 120.88C310.886 120.815 308.492 121.211 306.266 120.53C305.153 119.07 305.755 117.155 305.878 115.5C306.124 113.715 306.402 111.282 308.537 110.834C313.662 109.354 318.968 111.353 324.164 110.36C365.622 110.049 407.093 110.444 448.557 110.081ZM311.443 113.092C308.829 113.897 310.297 118.901 312.963 117.382C315.707 116.441 314.16 112.067 311.443 113.092ZM319.919 113.125C317.674 114.079 318.942 118.161 321.388 117.259C324.067 116.564 322.534 111.996 319.919 113.125ZM328.92 113.099C327.257 113.488 327.011 115.766 327.982 116.921C329.03 117.668 330.803 117.441 331.36 116.162C332.382 114.676 330.557 112.56 328.92 113.099Z" fill="#8E100D"/>
<path d="M311.443 113.092C314.16 112.067 315.707 116.441 312.963 117.382C310.297 118.901 308.828 113.897 311.443 113.092Z" fill="#D3716C"/>
<path d="M319.919 113.125C322.534 111.996 324.067 116.564 321.388 117.259C318.942 118.161 317.674 114.079 319.919 113.125Z" fill="#FEB273"/>
<path d="M328.92 113.098C330.557 112.56 332.382 114.675 331.359 116.162C330.803 117.44 329.03 117.667 327.982 116.921C327.011 115.766 327.257 113.488 328.92 113.098Z" fill="#FFEA58"/>
<path d="M304.5 121.146C304.532 121.425 304.597 121.983 304.629 122.262C304.836 146.853 304.616 171.456 304.713 196.046C304.804 197.921 305.037 200.018 306.512 201.354C307.495 202.562 309.146 202.529 310.563 202.581C354.57 202.555 398.584 202.581 442.598 202.594C445.374 202.549 448.182 202.821 450.952 202.399C452.757 202.107 453.708 200.368 454.621 198.966L454.931 198.499C454.86 200.835 452.692 202.957 450.395 203.055C403.359 203.074 356.317 203.1 309.281 203.035C306.007 203.152 303.982 199.654 304.293 196.682C304.254 176.336 304.286 155.984 304.267 135.638C304.351 130.81 304.072 125.962 304.5 121.146ZM296.463 245.648C297.233 245.07 298.035 244.531 298.838 243.986C300.093 247.004 300.177 250.314 300.442 253.533C300.177 255.026 299.847 256.518 299.575 258.024C299.161 259.062 298.728 260.088 298.352 261.146C297.259 259.951 296.165 258.757 295.039 257.602C295.001 257.959 294.929 258.679 294.891 259.036C294.548 257.972 294.172 256.914 293.888 255.837C293.752 255.181 293.629 254.526 293.519 253.87C294.444 252.242 295.026 250.45 295.337 248.614L295.46 248.004C295.725 247.192 296.062 246.401 296.463 245.648ZM439.388 278.921C465.478 278.779 491.568 278.843 517.665 278.889C517.691 281.556 517.684 284.23 517.639 286.897C491.568 287.06 465.485 286.969 439.408 286.949C439.356 284.275 439.356 281.595 439.388 278.921ZM439.997 279.603C439.958 281.829 439.958 284.061 439.997 286.294C465.66 286.359 491.322 286.339 516.985 286.3C517.018 284.048 517.031 281.803 517.005 279.557C491.335 279.557 465.666 279.466 439.997 279.603ZM304.81 323.13C306.79 326.395 307.69 330.152 309.217 333.631C310.686 337.499 312.381 341.289 313.921 345.131C315.875 349.927 314.348 355.145 313.572 360.025C312.064 365.542 309.993 370.915 308.803 376.516C308.214 380.643 308.822 384.836 308.175 388.957C307.677 382.772 307.269 376.341 309.683 370.467C311.533 365.211 313.002 359.805 313.804 354.288C314.322 351.439 314.672 348.395 313.487 345.65C310.453 338.206 307.043 330.866 304.81 323.13ZM232.552 367.729C233.134 372.324 231.95 376.873 231.756 381.455C238.666 382.701 245.402 384.79 252.384 385.634C258.771 387.717 265.513 388.211 272.01 389.827C274.547 390.573 277.251 391.397 279.134 393.376C276.067 392.163 273.207 390.346 269.875 389.905C258.739 387.964 247.635 385.842 236.686 383.032C231.898 381.656 226.883 382.324 221.985 382.227L221.978 381.623C225.065 381.643 228.164 381.779 231.251 381.539C228.397 379.449 224.476 379.417 221.765 377.094C225.026 377.82 227.873 379.676 231.083 380.553C232.027 376.341 232.04 371.999 232.552 367.729ZM518.299 425.618H518.901C516.824 455.439 514.96 485.273 513.129 515.107C512.508 522.583 512.074 530.073 511.544 537.562C511.44 537.276 511.233 536.699 511.136 536.413C511.304 531.085 511.77 525.776 512.1 520.461C514.3 488.855 516.06 457.224 518.299 425.618ZM528.749 425.631C528.969 425.631 529.409 425.638 529.623 425.638C529.493 434.659 530.36 443.667 530.729 452.681C531.506 470.833 532.366 488.979 533.33 507.118C533.751 516.905 534.133 526.691 534.553 536.484C534.418 536.893 534.159 537.711 534.023 538.126C533.758 527.898 533.169 517.677 532.78 507.449C531.318 480.185 530.25 452.895 528.749 425.631ZM471.516 553.624C472.81 551.762 474.227 549.977 475.721 548.27C476.019 548.458 476.608 548.828 476.906 549.01C475.036 550.47 473.263 552.034 471.516 553.624ZM440.644 568.999C442.468 563.651 444.565 557.953 449.095 554.293C447.91 556.701 445.872 558.524 444.617 560.88C443.251 563.489 441.783 566.182 441.705 569.2C448.965 569.726 456.484 570.985 463.556 568.583C462.644 569.31 461.628 569.959 460.444 570.089C453.307 570.972 446.15 569.92 439.033 569.369C430.75 568.142 422.396 567.214 414.301 564.982C411.402 564.092 408.161 564.002 405.624 562.197C417.052 565.566 428.757 568.006 440.644 568.999ZM467.53 565.137C468.656 561.633 468.934 557.817 470.946 554.656C469.976 557.953 468.817 561.224 468.539 564.683C471.884 565.734 475.359 566.286 478.84 566.662C482.289 567.013 485.984 567.61 489.265 566.085C490.87 565.358 492.966 564.125 492.623 562.042C490.915 558.777 486.974 557.693 485.02 554.663C487.938 556.603 490.857 558.589 493.464 560.958C495.846 562.769 495.276 566.747 492.973 568.408C489.414 571.51 484.341 570.777 480.031 570.297C483.163 570.199 486.508 570.92 489.439 569.479C492.021 568.168 494.577 565.702 493.969 562.522C492.131 565.838 488.443 567.837 484.677 567.61C478.912 567.188 473.185 566.319 467.53 565.137Z" fill="#222C46"/>
<path d="M372.746 136.274C376.351 131.627 384.09 132.607 387.189 137.326C389.447 140.317 388.244 144.25 389.227 147.644C389.855 152.265 389.48 156.944 389.609 161.591C389.551 163.817 389.861 166.154 389.078 168.282C387.791 169.392 385.985 169.373 384.387 169.463C379.489 169.528 374.552 169.431 369.731 168.451C369.504 166.173 369.362 163.882 369.42 161.591C369.511 156.983 369.136 152.337 369.944 147.774C370.799 143.932 369.77 139.396 372.746 136.274ZM375.794 138.727C373.309 140.927 374.105 144.529 374.015 147.463C377.677 147.56 381.346 147.515 385.008 147.417C384.982 144.497 385.642 140.94 383.184 138.76C381.288 136.605 377.716 136.618 375.794 138.727ZM376.965 156.743C378.052 159.015 378.001 161.533 378.026 163.992C378.978 163.973 379.942 163.96 380.906 163.967C380.886 161.987 380.641 159.936 381.424 158.067C381.961 156.782 382.084 154.991 380.686 154.212C379.075 152.973 376.033 154.705 376.965 156.743ZM126.063 140.616C126.742 137.41 130.353 136.235 133.265 136.398C166.958 136.514 200.651 136.268 234.337 136.534C232.61 136.962 230.817 136.748 229.064 136.78C197.124 136.839 165.191 136.78 133.252 136.813C130.825 136.742 128.217 137.527 126.885 139.714C126.289 142.414 126.231 145.211 126.005 147.969C126.024 164.187 125.985 180.412 126.024 196.63C126.567 202.679 126.237 208.753 126.302 214.815C126.27 222.382 126.425 229.962 126.108 237.523C126.237 242.695 125.739 247.945 126.826 253.04C126.58 252.826 126.089 252.404 125.843 252.196C125.707 234.531 126.024 216.872 125.823 199.206C125.545 186.889 125.778 174.564 125.707 162.247C125.81 155.036 125.442 147.807 126.063 140.616ZM395.258 225.023C397.07 224.082 399.205 224.329 401.185 224.277C405.935 224.413 410.691 224.153 415.44 224.452C449.509 224.121 483.596 224.458 517.671 224.27C519.923 224.238 522.893 224.374 523.877 226.84C524.627 229.313 524.808 232.188 523.812 234.615C521.301 235.699 518.383 235.024 515.717 235.173C480.122 235.154 444.533 235.16 408.944 235.173C406.342 235.134 403.754 235.355 401.179 235.667C398.176 236.036 395.174 235.563 392.178 235.4C392.113 232.37 392.023 229.326 392.411 226.308C392.592 227.223 392.773 228.145 392.954 229.066C393.608 227.671 394.029 226.029 395.258 225.023ZM398.215 227.372C396.74 228.086 397.05 231.214 398.862 231.422C400.933 232.11 402.259 229.274 401.379 227.639C400.441 227.035 399.231 226.892 398.215 227.372ZM407.158 227.197C404.951 228.411 406.239 232.045 408.73 231.448C411.486 230.728 409.869 225.782 407.158 227.197ZM416.042 231.169C417.233 231.922 418.371 230.812 419.374 230.26C419.167 228.781 418.456 226.977 416.695 226.931C414.761 227.217 414.12 230.39 416.042 231.169Z" fill="#540604"/>
<path d="M133.381 146.126C159.445 146.145 185.516 145.957 211.58 146.197C212.013 148.949 211.852 151.746 211.683 154.517C185.703 154.796 159.698 154.569 133.731 154.634C132.844 151.966 133.491 148.936 133.381 146.126Z" fill="#732D2D"/>
<path d="M368.087 148.67C368.553 148.443 369.479 147.995 369.944 147.774C369.136 152.337 369.511 156.983 369.42 161.591C369.362 163.882 369.504 166.173 369.731 168.451C374.552 169.431 379.489 169.528 384.387 169.463C385.985 169.373 387.791 169.392 389.078 168.282C389.861 166.154 389.551 163.817 389.609 161.591C389.48 156.945 389.855 152.265 389.227 147.645C391.13 147.742 390.903 149.825 390.948 151.201C390.884 156.828 391.065 162.454 390.929 168.075C390.961 169.463 389.564 170.567 388.231 170.456C382.42 170.469 376.603 170.385 370.786 170.372C369.22 170.554 367.99 168.944 368.107 167.478C368.029 161.208 368.094 154.939 368.087 148.67Z" fill="#374D77"/>
<path d="M133.362 161.637C153.395 161.578 173.435 161.669 193.475 161.637C206.999 161.708 220.529 161.41 234.053 161.76C233.865 164.525 233.813 167.296 233.69 170.067C203.246 170.171 172.801 170.177 142.356 170.145C139.36 170.158 136.364 170.158 133.375 170.009C133.304 167.218 133.297 164.427 133.362 161.637ZM237.036 289.63C238.071 290.117 236.635 292.213 235.683 291.759C235.373 290.889 236.182 289.825 237.036 289.63Z" fill="#732D2D"/>
<path d="M133.316 177.121C137.406 176.862 141.502 176.979 145.591 176.953C174.956 177.115 204.326 176.862 233.684 177.121C233.859 179.912 233.897 182.709 233.613 185.493C200.198 185.617 166.783 185.558 133.368 185.532C133.271 182.729 133.245 179.925 133.316 177.121ZM133.349 238.892C159.419 238.827 185.496 238.814 211.573 238.892C211.774 241.696 211.813 244.512 211.658 247.322C193.52 247.569 175.376 247.387 157.239 247.478C149.28 247.394 141.308 247.673 133.349 247.348C133.239 244.525 133.232 241.709 133.349 238.892Z" fill="#732D2D"/>
<path d="M240.996 182.54C241.682 182.521 242.361 182.56 243.047 182.664C248.974 184.28 254.61 186.791 260.143 189.446C271.104 194.008 281.011 200.667 291.603 205.969C296.56 209.065 302.015 211.206 307.353 213.536C316.956 216.963 326.681 220.389 336.86 221.584C340.82 222.07 344.767 222.804 348.772 222.641C353.664 222.343 358.517 223.842 363.396 222.959C371.271 222.466 379.088 221.415 386.943 220.707C392.857 220.234 398.655 218.851 404.569 218.345C410.613 217.917 416.476 216.087 422.558 216.074C427.702 215.295 432.924 215.749 438.068 214.977C443.471 214.879 448.92 214.6 454.297 215.321C463.155 215.678 472.001 216.878 480.633 218.91C482.561 219.383 484.619 219.773 486.126 221.175C485.428 221.609 484.742 222.064 484.049 222.499C495.697 222.732 507.344 222.589 518.991 222.576C519.891 222.57 520.777 222.791 521.644 223.063C480.186 223.057 438.722 223.167 397.264 223.141C395.116 222.979 393.252 224.4 392.411 226.308C392.023 229.326 392.113 232.37 392.178 235.4C392.146 258.829 391.926 282.264 392.1 305.692C391.971 307.782 392.618 309.975 394.546 311.053C396.513 312.331 398.946 312.13 401.185 312.182C440.45 312.137 479.72 312.117 518.985 312.195C520.072 312.143 521.243 312.214 522.233 311.663C524.394 310.871 525.637 308.613 525.423 306.361C525.339 280.55 525.436 254.734 525.423 228.924C526.29 230.903 525.883 233.142 526.277 235.232C527.992 234.901 529.772 235.31 531.266 236.192C537.951 240.125 544.305 244.623 550.193 249.678C554.677 253.144 558.424 257.427 562.468 261.373C569.586 268.194 575.617 276.066 581.078 284.256C586.623 293.459 591.819 302.921 595.851 312.902C600.024 322.371 602.205 332.547 604.437 342.613C605.466 349.298 606.314 356.015 606.877 362.764C607.466 380.183 606.016 397.816 601.014 414.573C599.06 422.464 596.096 430.051 592.68 437.41C589.859 443.134 587.277 449.014 583.718 454.336C579.641 460.917 575.371 467.426 570.11 473.137C569.457 473.76 568.654 474.201 567.91 474.695C566.486 462.078 565.276 449.43 564.261 436.774C564.066 433.99 563.749 431.219 563.419 428.461C563.4 427.507 563.406 426.559 563.432 425.618C566.797 425.398 570.201 425.807 573.546 425.32C575.662 424.892 576.173 422.399 575.953 420.556C575.824 418.596 575.28 415.682 572.692 416.026C540.105 415.897 507.512 415.78 474.926 416.007C470.014 415.812 469.645 425.002 474.395 425.534C477.617 425.949 480.885 425.69 484.127 425.729C483.894 429.467 483.331 433.166 483.079 436.904C479.591 469.068 476.343 501.258 472.997 533.434C472.816 535.427 472.771 537.432 472.79 539.438C469.561 539.632 466.332 539.509 463.104 539.542C460.496 537.406 458.309 534.791 456.419 532.013C455.999 531.312 455.63 530.605 455.294 529.878C456.419 528.281 457.636 526.549 457.565 524.498C455.707 516.275 453.488 508.137 450.499 500.258C443.458 480.354 434.93 461.027 426.848 441.532C423.742 434.308 420.643 426.988 416.1 420.537C414.191 417.532 411.331 415.299 408.089 413.898C409.765 413.755 411.493 413.657 413.072 413.015C414.45 411.626 415.026 409.679 415.835 407.947C418.365 401.768 421.568 395.895 424.195 389.755C429.333 377.931 435.053 366.366 440.171 354.535C441.129 352.705 440.987 349.947 438.884 349.012C436.522 348.337 434.011 348.7 431.598 348.642C411.965 348.713 392.34 348.623 372.714 348.681C365.79 348.85 358.847 348.259 351.936 348.791C346.333 360.94 340.833 373.135 335.281 385.303C332.589 381.747 331.392 377.379 329.968 373.226C326.073 359.999 323.245 346.494 320.146 333.066C318.632 326.914 317.033 320.697 314.219 314.986C312.756 311.819 309.909 309.664 306.945 308.009C304.04 306.088 300.481 305.212 297.932 302.765C303.095 295.536 305.541 286.424 303.924 277.604C303.807 277.844 303.561 278.318 303.438 278.558C303.147 278.331 302.565 277.877 302.274 277.649C302.293 277.279 302.345 276.546 302.371 276.176C302.675 276.235 303.29 276.345 303.594 276.397C302.843 271.594 303.413 266.733 303.917 261.937C304.383 257.245 305.884 252.65 305.477 247.9C305.224 240.099 301.698 232.993 298.993 225.834C298.035 223.517 297.162 220.915 295.007 219.435C292.16 217.514 288.614 217.346 285.294 217.248C282.887 217.333 280.907 215.801 278.791 214.912C271.906 211.693 263.669 211.622 256.72 214.691C252.216 216.619 248.353 219.773 244.982 223.284C243.772 223.258 242.549 223.31 241.429 223.79C240.983 222.362 240.705 220.876 240.744 219.377C240.795 210.499 240.737 201.627 240.763 192.749C240.795 189.342 240.556 185.928 240.996 182.54ZM519.263 331.36C517.639 334.39 517.626 337.999 517.911 341.347C518.493 345.592 519.27 350.252 522.537 353.334C523.566 354.217 523.243 355.697 523.391 356.904C523.501 364.938 523.67 372.973 523.644 381.014L524.44 381.02C524.485 373.213 524.291 365.405 524.129 357.598C524.174 356.028 523.896 354.353 524.686 352.912C526.776 348.915 526.717 344.223 526.226 339.855C525.676 336.577 525.1 332.904 522.563 330.529C521.496 329.555 519.813 330.12 519.263 331.36ZM501.482 346.591C500.446 348.623 501.43 350.972 502.374 352.847C504.387 356.294 507.318 359.162 510.573 361.44C512.585 362.907 515.135 363.673 516.798 365.607C518.331 368.793 518.299 372.447 518.551 375.912C517.742 375.458 516.953 375.004 516.138 374.608C514.701 372.375 511.615 371.954 510.01 369.819C507.512 366.664 504.607 363.543 500.718 362.186C499.32 361.765 497.211 361.414 496.376 362.965C495.917 365.003 497.36 366.82 498.744 368.138C501.1 370.195 504.115 371.694 507.273 371.804C508.645 371.928 510.172 371.499 511.401 372.324C513.09 373.226 514.617 374.433 516.41 375.134C516.901 376.12 517.788 376.815 518.538 377.6C518.532 378.93 518.506 380.267 518.474 381.604C515.614 381.656 512.741 381.468 509.887 381.656C507.998 381.721 506.82 383.765 506.729 385.485C506.522 388.535 506.697 391.599 506.432 394.655C506.127 398.906 505.519 403.215 506.186 407.473C506.781 410.705 509.654 413.008 512.708 413.813C519.761 415.689 527.287 415.611 534.379 413.963C537.187 413.366 539.795 411.529 540.862 408.79C542.474 404.818 541.794 400.412 541.231 396.297C540.688 392.838 541.102 389.314 540.597 385.861C540.306 383.759 538.682 381.649 536.43 381.591C533.939 381.455 531.434 381.578 528.95 381.358C528.859 379.67 529.079 378.002 529.48 376.373C528.497 373.05 529.603 369.689 529.894 366.366C527.571 370.954 528.788 376.432 528.076 381.396C525.255 381.611 522.427 381.643 519.606 381.585C519.612 376.451 519.502 371.22 518.124 366.249C516.274 361.122 513.763 356.196 510.398 351.9C508.787 349.849 507.046 347.772 504.717 346.526C503.733 346.066 502.29 345.553 501.482 346.591ZM536.449 352.4C533.415 356.527 531.092 361.232 529.649 366.152C535.511 362.602 542.04 358.63 544.201 351.66C544.602 350.258 544.894 347.487 542.868 347.396C540.092 347.928 538.164 350.323 536.449 352.4ZM547.191 360.59C542.797 362.68 540.028 366.853 536.553 370.072C534.353 372.142 531.111 373.213 529.726 376.042C532.599 374.673 534.67 371.778 537.724 370.844C542.959 371.791 548.498 369.299 551.552 364.99C552.51 363.608 553.215 361.511 552.063 360.058C550.471 359.337 548.692 359.947 547.191 360.59ZM122.193 198.473C123.371 197.221 124.853 198.33 125.823 199.206C126.024 216.872 125.707 234.531 125.843 252.196C126.089 252.404 126.58 252.826 126.826 253.04C127.299 253.429 127.726 253.877 128.107 254.37C128.327 254.662 128.768 255.253 128.988 255.551C133.653 255.921 138.331 255.688 143.003 255.74C172.988 255.629 202.974 255.85 232.953 255.597C234.15 255.571 235.321 255.882 236.453 256.259C236.337 256.726 236.11 257.667 236 258.134C235.347 260.458 234.829 262.82 234.169 265.144C233.438 266.883 232.377 268.447 231.219 269.927C224.152 277.169 215.566 283.283 210.713 292.401C209.516 294.38 209.018 297.229 206.52 297.989C202.527 299.76 199.053 302.493 195.513 305.024C189.897 309.346 185.393 314.895 180.98 320.385C177.065 325.149 174.011 330.535 170.219 335.377C167.165 337.538 164.712 340.413 162.292 343.243C154.456 352.491 148.244 363.251 144.686 374.874C144.472 374.965 144.038 375.147 143.825 375.244C140.052 365.126 135.549 355.294 131.395 345.326C141.948 339.706 150.91 330.691 155.615 319.593C157.206 315.596 159.096 310.449 155.88 306.737C153.182 307.405 150.71 308.801 148.762 310.787C141.567 317.783 136.416 326.758 133.433 336.318C132.559 338.933 132.093 341.685 130.89 344.19C127.027 335.643 122.666 327.336 118.893 318.75C128.735 312.286 136.72 302.629 140.285 291.298C141.153 287.884 142.298 284.048 140.764 280.661C140.37 279.213 138.597 279.518 137.6 280.09C134.319 281.868 131.899 284.84 129.667 287.767C125.144 294.218 121.87 301.532 119.935 309.171C119.204 311.955 118.984 314.849 118.207 317.627C114.28 309.735 109.634 302.201 106.049 294.14C114.092 288.208 119.89 279.421 122.879 269.92C124.102 265.578 125.267 260.51 122.924 256.343C122.031 254.597 119.974 256.038 118.977 256.934C114.668 260.958 111.957 266.377 109.847 271.815C107.084 278.545 105.848 285.762 105.298 292.985C103.376 289.364 101.914 285.528 100.128 281.848C98.7304 279.194 99.2869 276.118 98.9698 273.249C99.3257 273.347 100.044 273.554 100.4 273.658C100.193 269.148 98.6722 264.787 98.9892 260.244C98.8016 250.489 99.5522 240.625 102.483 231.279C106.165 218.955 112.552 207.118 122.193 198.473ZM290.355 229.865C291.739 229.89 292.496 231.078 292.367 232.389C291.163 232.11 290.71 230.903 290.355 229.865ZM244.121 280.557C245.234 280.544 244.587 282.127 243.798 282.127C242.736 282.114 243.384 280.57 244.121 280.557ZM242.161 283.14C243.248 283.133 242.568 284.684 241.837 284.717C240.724 284.723 241.384 283.146 242.161 283.14ZM239.618 286.378C240.666 286.852 239.229 288.968 238.278 288.526C237.987 287.65 238.763 286.586 239.618 286.378ZM234.409 292.875C235.496 292.881 234.816 294.439 234.072 294.465C232.985 294.452 233.665 292.894 234.409 292.875ZM58.269 445.185C58.9355 437.631 59.576 429.824 62.779 422.854C65.8721 425.833 65.2509 431.498 69.4892 433.413C69.8968 434.088 70.298 434.763 70.7057 435.45C80.1918 435.976 89.7038 435.788 99.2028 436.035C99.5393 436.431 99.8692 436.839 100.206 437.248C90.7261 437.333 81.2594 437.923 71.7863 438.209C77.5128 449.89 85.4719 460.514 95.0938 469.263C102.516 466.238 110.048 463.467 117.483 460.462C119.256 459.736 121.067 459.106 122.931 458.639C122.892 458.963 122.821 459.606 122.782 459.924C114.661 464.064 106.275 467.66 98.2386 471.969C105.486 477.628 113.6 482.457 122.562 484.767C123.313 493.47 125.293 502.024 127.952 510.331C131.395 520.5 135.957 530.423 142.557 538.944C139.341 539.905 135.963 539.49 132.669 539.457C128.353 539.301 124.044 539.301 119.734 539.295C120.123 538.866 120.511 538.445 120.906 538.029C114.597 535.161 107.692 533.72 101.707 530.118C89.8979 524.031 79.6223 514.822 72.5951 503.49C69.968 499.856 68.2727 495.676 66.215 491.718C63.2061 485.727 61.5561 479.199 59.9254 472.728C57.7707 463.707 58.2043 454.381 58.269 445.185ZM493.27 425.943C495.127 425.625 497.01 425.443 498.9 425.482C505.364 425.592 511.835 425.411 518.299 425.618C516.06 457.224 514.3 488.856 512.1 520.461C509.104 523.602 504.795 524.654 501.055 526.568C496.991 528.632 492.571 529.787 488.301 531.299C485.201 532.299 481.998 533.636 478.679 532.974C482.652 500.862 487.349 468.847 491.743 436.794C492.358 433.192 492.901 429.577 493.27 425.943ZM518.901 425.618C522.181 425.547 525.468 425.541 528.749 425.631C530.25 452.895 531.318 480.185 532.78 507.449C528.833 510.571 524.53 513.186 520.505 516.204C518.648 517.612 516.468 518.702 514.08 518.547C513.756 517.392 513.42 516.249 513.129 515.107C514.96 485.273 516.824 455.439 518.901 425.618ZM529.623 425.638C537.905 425.404 546.188 425.644 554.47 425.735C554.69 429.506 555.13 433.257 555.654 437.002C556.729 445.049 557.725 453.103 558.715 461.163C559.602 468.555 560.831 475.902 561.523 483.32C556.088 487.584 551.681 492.964 546.498 497.494C542.208 500.836 538.183 504.6 533.33 507.118C532.366 488.979 531.506 470.833 530.729 452.681C530.36 443.667 529.493 434.659 529.623 425.638Z" fill="#D85555"/>
<path d="M330.227 184.604C345.032 184.384 359.844 184.585 374.649 184.461C392.941 184.312 411.228 184.812 429.514 184.591C429.501 186.973 429.488 189.355 429.423 191.73C396.339 191.815 363.254 191.763 330.169 191.73C330.104 189.355 330.156 186.979 330.227 184.604ZM330.965 185.24C330.499 187.135 330.803 189.115 330.712 191.042C344.055 191.38 357.417 191.153 370.773 191.243C390.107 191.224 409.448 191.321 428.789 191.153C428.86 189.212 428.88 187.278 428.996 185.344C419.698 184.968 410.387 185.338 401.088 185.084C397.031 184.682 392.954 184.916 388.891 184.857C370.546 184.851 352.202 184.857 333.864 184.838C332.88 184.851 331.91 185.02 330.965 185.24ZM295.039 257.602C296.165 258.757 297.259 259.952 298.352 261.146C298.139 267.681 298.546 274.294 297.336 280.758C295.751 285.976 290.406 288.864 288.543 293.939C287.76 295.587 287.559 297.697 285.941 298.793C285.171 298.618 284.401 298.449 283.631 298.287C284.214 303.693 282.137 309.554 277.478 312.604C272.081 316.394 264.937 315.816 258.959 313.876C254.966 312.675 251.543 310.248 248.256 307.762C251.724 309.151 254.481 311.858 258.027 313.078C263.909 315.33 271.078 316.141 276.624 312.584C281.496 309.56 283.955 303.512 283.049 297.891C282.227 297.684 281.412 297.489 280.597 297.301C279.93 296.171 279.516 294.906 279.561 293.582C279.775 291.083 279.885 288.546 279.296 286.086C284.79 286.696 289.785 282.744 292.16 278.032C295.013 272.23 296.78 265.423 294.89 259.036C294.929 258.68 295 257.959 295.039 257.602ZM210.713 292.401C215.566 283.283 224.152 277.169 231.218 269.927C231.063 270.64 231.05 271.426 230.636 272.055C229.892 272.393 229.141 272.75 228.566 273.347C221.551 280.2 213.553 286.631 209.6 295.899C207.82 300.643 205.193 306.127 207.516 311.131C207.225 311.514 206.947 311.909 206.688 312.312C206.242 310.001 205.698 307.633 206.132 305.277C206.591 302.7 207.38 300.202 207.82 297.625C207.497 297.716 206.85 297.898 206.52 297.989C209.017 297.229 209.516 294.38 210.713 292.401ZM303.438 278.558C303.561 278.318 303.807 277.844 303.924 277.604C305.541 286.424 303.095 295.536 297.932 302.765C297.867 302.59 297.731 302.24 297.66 302.058C298.631 300.143 299.867 298.372 300.831 296.457C303.594 290.954 304.092 284.6 303.438 278.558ZM201.233 401.054C202.133 403.098 202.98 405.227 204.488 406.915C206.17 408.771 208.332 410.088 210.435 411.412C205.827 409.984 201.848 405.973 201.233 401.054ZM401.088 460.359C401.218 460.112 401.476 459.619 401.606 459.372C404.867 467.335 408.115 475.305 411.014 483.404C412.91 488.382 414.347 493.541 416.67 498.35C417.349 505.113 421.328 511.064 421.678 517.872C415.602 498.428 409.099 479.095 401.088 460.359Z" fill="#141A2B"/>
<path d="M133.316 192.645C151.855 192.353 170.407 192.613 188.945 192.522C203.847 192.6 218.749 192.373 233.645 192.632C233.833 195.423 233.859 198.226 233.529 201.011C200.153 201.283 166.777 201.173 133.401 201.05C133.232 198.252 133.206 195.449 133.316 192.645ZM133.401 207.89C135.089 208.013 136.772 208.091 138.467 208.104C166.291 208.098 194.122 208.111 221.946 208.098C225.854 208.124 229.769 207.994 233.677 208.208C233.846 211.024 233.807 213.854 233.554 216.664C200.172 216.736 166.783 216.807 133.401 216.645C133.239 213.724 133.2 210.804 133.401 207.89Z" fill="#732D2D"/>
<path d="M256.72 214.691C263.669 211.621 271.906 211.693 278.791 214.912C280.907 215.801 282.887 217.332 285.294 217.248C288.614 217.345 292.16 217.514 295.007 219.435C297.162 220.915 298.035 223.517 298.993 225.834C301.698 232.992 305.224 240.099 305.477 247.9C305.884 252.65 304.383 257.245 303.917 261.937C303.412 266.733 302.843 271.594 303.594 276.397C303.29 276.345 302.675 276.234 302.371 276.176C302.345 276.546 302.293 277.279 302.274 277.649C301.853 283.055 300.455 288.377 298.223 293.309C297 296.054 295.803 298.819 294.787 301.655C293.409 301.175 291.966 300.889 290.594 300.409C292.173 299.819 294.108 299.299 294.612 297.443C296.508 292.446 298.805 287.514 299.517 282.173C300.015 279.077 299.012 275.988 299.388 272.886C299.983 268.284 299.666 263.631 299.841 259.004C300.255 258.141 300.701 257.297 301.148 256.453C303.833 252.832 303.846 247.997 303.186 243.72C302.351 238.82 300.417 234.213 298.398 229.709C296.955 226.535 296.34 222.589 293.234 220.538C289.371 218.254 284.596 219.383 280.538 217.689C276.132 215.82 271.499 213.951 266.626 214.185C258.784 215.074 251.485 219.033 246.088 224.75C241.701 229.8 237.735 235.809 237.366 242.695C237.288 248.153 239.449 253.877 237.01 259.114C236.758 258.868 236.253 258.381 236 258.134C236.11 257.667 236.337 256.726 236.453 256.259C236.919 253.877 236.66 251.443 236.369 249.061C235.373 243.668 235.864 238.009 238.168 233.005C239.825 229.378 242.361 226.256 244.982 223.284C248.353 219.773 252.216 216.619 256.72 214.691Z" fill="#2D3F5E"/>
<path d="M246.088 224.751C251.485 219.033 258.784 215.074 266.626 214.185C271.499 213.951 276.132 215.821 280.539 217.69C284.596 219.384 289.371 218.254 293.234 220.539C296.34 222.589 296.955 226.535 298.398 229.709C300.417 234.213 302.351 238.821 303.186 243.721C303.846 247.997 303.833 252.832 301.148 256.454C300.915 255.474 300.656 254.507 300.442 253.533C300.177 250.314 300.093 247.004 298.838 243.987C297.104 239.885 294.017 236.523 292.367 232.389C292.496 231.078 291.739 229.891 290.355 229.865C289.196 228.813 288.064 227.736 286.932 226.665C286.77 227.055 286.453 227.827 286.291 228.21C284.854 231.643 283.89 235.323 281.697 238.379C279.199 242.111 275.672 244.928 272.398 247.926C271.725 248.478 271.059 249.036 270.379 249.574C266.355 250.898 262.317 252.17 258.195 253.157C256.778 253.17 255.296 253.267 253.944 252.78C252.591 251.93 251.569 250.658 250.255 249.756C248.638 249.386 246.392 250.107 246.03 251.917C245.26 255.104 245.933 258.375 246.496 261.542C246.36 268.817 241.643 274.755 237.21 280.07C231.277 287.631 224.03 294.186 219.358 302.7C219.034 302.506 218.387 302.129 218.064 301.935C215.741 303.343 213.321 304.576 210.855 305.712C210.467 304.557 209.768 303.375 210.079 302.116C210.577 299.241 213.088 297.457 214.699 295.211C216.86 292.206 219.228 289.357 221.564 286.482C223.402 284.23 225.68 282.368 227.336 279.966C230.3 275.521 233.852 271.367 235.56 266.221C235.211 265.948 234.519 265.41 234.169 265.144C234.829 262.82 235.347 260.458 236 258.134C236.253 258.381 236.758 258.868 237.01 259.114C239.449 253.877 237.288 248.153 237.366 242.695C237.735 235.809 241.701 229.8 246.088 224.751Z" fill="#07152F"/>
<path d="M133.446 223.427C163.8 223.582 194.154 223.212 224.508 223.42C224.903 226.321 224.767 229.261 224.476 232.168C217.158 232.357 209.846 231.993 202.534 232.116C179.505 232.285 156.469 232.272 133.439 232.162C133.291 229.248 133.291 226.334 133.446 223.427Z" fill="#732D2D"/>
<path d="M392.411 226.308C393.252 224.4 395.116 222.979 397.264 223.141C438.722 223.167 480.186 223.057 521.644 223.063C524.006 223.991 525.889 226.256 525.423 228.923C525.436 254.734 525.339 280.55 525.423 306.36C525.637 308.612 524.394 310.871 522.233 311.663L522.589 311.189C524.129 309.508 525.087 307.379 524.847 305.05C524.744 282.166 525.035 259.276 524.731 236.393C480.782 236.562 436.839 236.322 392.896 236.439C392.586 259.309 392.696 282.186 392.67 305.056C392.482 307.256 393.498 309.21 394.546 311.053C392.618 309.975 391.971 307.782 392.1 305.692C391.926 282.264 392.146 258.829 392.178 235.4C395.174 235.563 398.176 236.036 401.179 235.666C403.754 235.355 406.342 235.134 408.944 235.173C444.533 235.16 480.122 235.154 515.717 235.173C518.383 235.024 521.301 235.699 523.812 234.615C524.809 232.188 524.627 229.313 523.877 226.84C522.893 224.374 519.923 224.238 517.671 224.27C483.596 224.458 449.509 224.121 415.44 224.452C410.691 224.153 405.935 224.413 401.185 224.277C399.205 224.329 397.07 224.082 395.258 225.023C394.029 226.029 393.608 227.671 392.954 229.066C392.773 228.145 392.592 227.223 392.411 226.308ZM286.932 226.665C288.064 227.736 289.196 228.813 290.355 229.864C290.71 230.903 291.163 232.11 292.367 232.389C294.017 236.523 297.104 239.885 298.838 243.986C298.035 244.531 297.233 245.07 296.463 245.648C296.262 245.31 295.868 244.642 295.674 244.304C294.172 238.119 289.17 233.719 286.291 228.21C286.453 227.827 286.77 227.054 286.932 226.665ZM439.938 256.025C465.854 256.22 491.788 255.895 517.71 256.252C517.438 258.945 518.461 262.087 517.063 264.481L517.031 263.612C516.998 261.392 517.044 259.173 517.037 256.953C491.355 256.7 465.666 256.752 439.984 256.862L439.938 256.025ZM233.483 356.839C233.626 350.758 233.729 344.638 234.687 338.635C235.056 343.865 234.014 349.077 234.357 354.314C234.409 355.936 234.286 357.572 233.826 359.136C233.742 358.558 233.574 357.41 233.483 356.839Z" fill="#07152F"/>
<path d="M398.215 227.372C399.231 226.892 400.441 227.035 401.379 227.639C402.259 229.274 400.933 232.11 398.862 231.422C397.05 231.214 396.74 228.086 398.215 227.372Z" fill="#ED676C"/>
<path d="M407.158 227.197C409.869 225.782 411.487 230.728 408.73 231.448C406.239 232.045 404.951 228.411 407.158 227.197Z" fill="#FA8463"/>
<path d="M416.042 231.169C414.12 230.39 414.761 227.216 416.696 226.931C418.456 226.976 419.167 228.781 419.374 230.26C418.372 230.812 417.233 231.922 416.042 231.169Z" fill="#FDDF51"/>
<path d="M281.697 238.379C283.89 235.323 284.854 231.643 286.291 228.21C289.17 233.72 294.172 238.12 295.673 244.305C291.83 240.43 290.4 234.745 286.343 231C284.55 237.081 280.558 242.092 276.21 246.55C276.921 246.725 277.64 246.9 278.358 247.069C276.333 246.946 274.301 247.219 272.398 247.926C275.672 244.928 279.199 242.111 281.697 238.379Z" fill="#8D6C73"/>
<path d="M286.343 231C290.4 234.745 291.83 240.43 295.673 244.304C295.868 244.642 296.262 245.31 296.463 245.648C296.062 246.401 295.725 247.193 295.46 248.004C294.127 245.486 289.915 245.94 288.815 248.484C290.982 248.62 293.163 248.633 295.337 248.614C295.026 250.45 294.444 252.242 293.519 253.871C291.972 252.767 290.109 252.735 288.297 252.891C288.4 253.059 288.607 253.403 288.711 253.572C288.226 254.429 287.715 255.272 287.216 256.129C288.174 256.259 289.145 256.382 290.115 256.492C291.409 256.609 292.665 256.207 293.888 255.837C294.172 256.914 294.548 257.972 294.891 259.037C296.78 265.423 295.013 272.23 292.16 278.032C289.785 282.744 284.79 286.696 279.296 286.086C278.908 286.067 278.131 286.034 277.743 286.015C275.731 285.385 273.705 284.795 271.745 284.016C267.312 282.03 263.689 278.759 259.968 275.715C262.116 279.901 265.345 283.419 268.891 286.469C272.081 289.338 275.459 292.141 279.561 293.582C279.516 294.906 279.93 296.171 280.597 297.301C280.953 300.072 281.101 303.161 279.406 305.562C277.18 308.69 273.841 311.501 269.855 311.702C261.54 312.383 253.465 308.346 247.751 302.493C246.024 300.857 245.467 298.157 243.312 296.983C244.801 296.6 246.172 295.776 247.072 294.504C249.311 291.466 250.404 287.793 251.75 284.314C253.607 278.954 255.367 273.34 254.85 267.59C254.52 267.369 253.866 266.922 253.536 266.701C254.326 266.312 255.089 265.883 255.866 265.461C255.911 265.578 256.008 265.812 256.06 265.922C256.875 261.678 258.622 257.576 258.195 253.157C262.317 252.17 266.355 250.898 270.379 249.574C273.544 249.626 276.688 249.237 279.827 248.88C279.885 248.516 280.001 247.79 280.066 247.426C279.639 247.335 278.785 247.16 278.358 247.069C277.64 246.9 276.921 246.725 276.21 246.55C280.558 242.091 284.55 237.081 286.343 231ZM284.207 251.716C284.246 254.357 284.395 257.083 285.56 259.504C286.362 261.542 287.824 263.625 287.262 265.922C286.168 268.012 283.509 267.564 281.548 267.694C281.723 267.843 282.059 268.135 282.227 268.278C284.065 267.908 286.505 268.272 287.656 266.454C288.439 263.8 286.776 261.34 285.942 258.933C284.913 256.642 284.854 254.104 284.207 251.716ZM270.431 255.084C270.735 255.052 271.331 254.987 271.635 254.961C272.638 256.324 274.12 257.077 275.815 257.161L275.666 256.538C276.675 256.629 277.911 257.077 278.701 256.174C279.988 255.22 279.244 252.8 277.594 252.865C275.071 252.91 272.618 253.858 270.431 255.084ZM274.974 270.128C276.274 272.081 277.504 274.067 278.701 276.085C279.07 276.871 280.008 276.929 280.713 277.234C279.51 276.358 278.52 275.248 278.041 273.82C280.448 274.203 283.263 275.183 285.411 273.515C283.735 273.749 282.007 274.288 280.338 273.749C278.17 273.217 276.611 271.523 274.974 270.128Z" fill="#CB7F62"/>
<path d="M78.354 240.638C81.9452 241.124 84.6371 243.779 87.0248 246.284C93.6896 253.715 97.585 263.417 98.9697 273.249C99.2868 276.118 98.7303 279.194 100.128 281.848C101.914 285.528 103.376 289.364 105.298 292.985C105.848 285.762 107.084 278.545 109.847 271.815C111.957 266.376 114.668 260.957 118.977 256.934C119.974 256.038 122.031 254.597 122.924 256.343C125.267 260.51 124.102 265.578 122.879 269.92C119.89 279.421 114.092 288.208 106.049 294.14C109.634 302.201 114.28 309.735 118.207 317.627C118.984 314.849 119.204 311.955 119.935 309.171C121.87 301.532 125.144 294.218 129.667 287.767C131.899 284.84 134.319 281.868 137.6 280.09C138.597 279.518 140.37 279.213 140.764 280.661C142.298 284.048 141.152 287.884 140.285 291.298C136.72 302.629 128.735 312.286 118.893 318.75C118.809 318.6 118.634 318.289 118.55 318.133C118.33 318.328 117.903 318.711 117.69 318.905C110.636 322.28 102.393 322.449 94.7509 321.488C89.6131 320.554 83.9189 319.451 80.1917 315.472C78.8458 314.259 78.5999 311.961 80.2694 310.91C83.1424 309.184 86.6753 309.333 89.9042 309.404C99.5068 310.027 108.857 313.22 117.243 317.88C113.186 309.982 108.799 302.259 104.871 294.296C95.7602 296.723 85.8406 296.113 77.0793 292.641C73.0868 290.921 68.6156 288.221 67.6902 283.62C68.0008 281.478 70.6798 281.154 72.4269 281.095C83.7895 281.057 94.175 286.515 103.713 292.154C102.296 288.767 100.665 285.47 99.1574 282.121C97.8633 278.934 94.1685 278.084 91.9425 275.748C84.9671 269.167 79.8747 260.497 77.6876 251.138C77.034 247.692 76.3804 243.779 78.354 240.638ZM162.292 343.242C164.712 340.413 167.165 337.538 170.219 335.377C166.77 342.821 162.26 349.732 158.682 357.118C155.776 362.615 153.453 368.404 150.289 373.764C148.529 374.601 146.426 375.114 145.067 376.542C145.294 377.639 145.688 378.69 146.038 379.761C145.889 379.923 145.591 380.248 145.436 380.41C144.97 379.281 144.478 378.171 144.006 377.055C133.077 380.553 121.333 381.649 110.009 379.657C105.428 378.651 100.652 377.548 96.8215 374.699C95.5079 373.661 93.7544 371.636 95.1456 369.987C97.268 367.651 100.613 367.138 103.577 366.664C115.153 365.529 126.749 368.546 137.354 373.024C139.263 373.842 141.133 374.887 143.23 375.147L143.825 375.244C144.038 375.147 144.472 374.965 144.685 374.874C148.244 363.251 154.456 352.491 162.292 343.242Z" fill="black"/>
<path d="M288.814 248.484C289.915 245.94 294.127 245.486 295.46 248.004L295.337 248.614C293.163 248.633 290.982 248.62 288.814 248.484Z" fill="#040912"/>
<path d="M272.398 247.926C274.301 247.218 276.333 246.946 278.358 247.069C278.785 247.16 279.639 247.335 280.066 247.426C280.001 247.79 279.885 248.516 279.827 248.88C276.688 249.237 273.544 249.626 270.379 249.574C271.059 249.036 271.725 248.478 272.398 247.926Z" fill="#11151E"/>
<path d="M236.369 249.062C236.66 251.443 236.919 253.877 236.453 256.259C235.321 255.882 234.15 255.571 232.953 255.597C202.974 255.85 172.988 255.629 143.003 255.74C138.331 255.688 133.653 255.921 128.987 255.551C128.767 255.253 128.327 254.662 128.107 254.37C129.369 254.695 130.65 255.026 131.97 255.032C166.764 255.032 201.563 254.987 236.363 255.058C236.427 253.059 236.421 251.06 236.369 249.062Z" fill="#8F9CB0"/>
<path d="M246.03 251.917C246.392 250.106 248.638 249.386 250.255 249.756C251.569 250.658 252.591 251.93 253.944 252.78C255.296 253.267 256.778 253.17 258.195 253.157C258.622 257.576 256.875 261.678 256.06 265.922C256.008 265.812 255.911 265.578 255.866 265.462C255.342 264.559 255.335 263.073 254.177 262.742C253.019 262.327 252.41 263.612 251.692 264.241C249.861 263.541 248.152 262.567 246.496 261.542C245.933 258.375 245.26 255.104 246.03 251.917ZM250.087 253.254C249.803 254.202 251.207 255.298 252.087 254.954C252.391 254 250.967 252.865 250.087 253.254ZM253.711 256.648C252.999 257.167 253.763 258.602 254.565 257.992C255.231 257.46 254.5 256.071 253.711 256.648Z" fill="#C4755D"/>
<path d="M284.207 251.716C284.854 254.104 284.913 256.642 285.942 258.933C286.776 261.34 288.439 263.8 287.656 266.454C286.504 268.271 284.065 267.908 282.227 268.278C282.059 268.135 281.723 267.843 281.548 267.694C283.508 267.564 286.168 268.012 287.261 265.922C287.824 263.625 286.362 261.541 285.56 259.504C284.395 257.083 284.246 254.357 284.207 251.716ZM250.087 253.254C250.967 252.865 252.391 254 252.087 254.954C251.207 255.298 249.802 254.201 250.087 253.254ZM253.711 256.648C254.5 256.071 255.231 257.459 254.565 257.992C253.763 258.602 252.999 257.167 253.711 256.648ZM274.974 270.128C276.611 271.523 278.17 273.217 280.338 273.749C282.007 274.288 283.735 273.749 285.411 273.515C283.263 275.183 280.448 274.203 278.041 273.82C278.52 275.248 279.51 276.358 280.713 277.234C280.008 276.929 279.07 276.871 278.701 276.085C277.504 274.067 276.274 272.081 274.974 270.128ZM75.8758 405.954C76.8075 405.578 77.9205 407.005 77.487 407.868C76.5552 408.232 75.4357 406.804 75.8758 405.954ZM80.1659 411.574C81.2594 412.392 82.1847 413.411 82.89 414.592C81.7964 413.761 80.8776 412.736 80.1659 411.574ZM83.4077 415.475C84.5012 416.292 85.4265 417.318 86.1383 418.486C85.0383 417.675 84.1195 416.643 83.4077 415.475ZM86.6301 419.388C87.9631 420.368 89.1019 421.595 89.9948 422.99C88.6813 421.984 87.536 420.77 86.6301 419.388ZM93.0297 426.579C93.7156 426.975 94.4079 427.377 95.0744 427.812C95.288 428.162 95.7085 428.857 95.9221 429.201L95.812 429.765C94.8544 428.727 93.9291 427.663 93.0297 426.579ZM106.295 439.961C108.579 441.668 110.539 443.77 112.435 445.899C110.119 444.218 108.165 442.109 106.295 439.961ZM119.171 451.63C120.336 452.343 121.358 453.265 122.193 454.349C121.022 453.642 119.993 452.72 119.171 451.63ZM449.703 522.402C451.43 521.863 453.242 522.032 455.002 522.311C455.837 523.051 456.691 523.777 457.565 524.498C457.636 526.549 456.419 528.281 455.293 529.878C454.64 528.431 454.09 526.944 453.527 525.471C453.113 524.394 452.705 523.323 452.297 522.259C451.424 522.291 450.563 522.337 449.703 522.402Z" fill="#010107"/>
<path d="M288.297 252.891C290.109 252.735 291.972 252.767 293.519 253.871C293.629 254.526 293.752 255.181 293.888 255.837C292.665 256.207 291.409 256.609 290.115 256.492C289.72 255.48 289.3 254.481 288.711 253.572C288.607 253.403 288.4 253.059 288.297 252.891Z" fill="#010000"/>
<path d="M270.431 255.084C272.618 253.857 275.071 252.91 277.594 252.864C279.244 252.799 279.988 255.22 278.701 256.174C277.911 257.076 276.675 256.628 275.666 256.538C275.465 255.733 275.265 254.935 275.064 254.143C273.919 254.422 272.787 254.733 271.635 254.961C271.331 254.986 270.735 255.051 270.431 255.084Z" fill="#030106"/>
<path d="M409.765 256.596C412.858 252.287 419.808 251.365 423.561 255.324C427.029 258.251 426.615 263.118 426.583 267.2C427.385 267.811 428.886 268.155 428.809 269.42C428.809 275.657 428.737 281.9 428.776 288.137C429.016 290.051 426.712 290.869 425.166 290.733C419.536 290.687 413.913 290.752 408.29 290.72C406.879 290.83 405.475 289.61 405.637 288.15C405.495 282.309 405.469 276.455 405.533 270.614C405.313 268.881 406.711 267.752 407.856 266.74C407.837 263.313 407.455 259.445 409.765 256.596ZM413.454 258.296C411.092 260.665 411.719 264.254 411.661 267.285C415.343 267.395 419.031 267.337 422.72 267.35C422.7 264.377 423.263 260.879 421.05 258.504C419.258 256.148 415.362 256.031 413.454 258.296ZM414.502 277.383C416.003 279.414 415.453 281.997 415.453 284.347C416.437 284.288 417.427 284.23 418.423 284.165C418.384 282.127 418.087 279.992 418.928 278.065C419.387 277.026 419.691 275.845 419.018 274.82C417.576 272.425 412.839 274.768 414.502 277.383Z" fill="#8E100D"/>
<path d="M288.711 253.572C289.3 254.481 289.72 255.48 290.115 256.492C289.145 256.382 288.174 256.259 287.216 256.129C287.714 255.272 288.226 254.429 288.711 253.572Z" fill="#EBCBB3"/>
<path d="M300.442 253.533C300.656 254.506 300.915 255.473 301.148 256.453C300.701 257.297 300.255 258.141 299.841 259.004C299.769 258.757 299.64 258.271 299.575 258.024C299.847 256.518 300.177 255.026 300.442 253.533Z" fill="#6F7D97"/>
<path d="M271.635 254.961C272.787 254.734 273.919 254.422 275.064 254.143C275.265 254.935 275.465 255.733 275.666 256.538L275.815 257.161C274.119 257.077 272.638 256.324 271.635 254.961Z" fill="#F4E5DC"/>
<path d="M439.33 260.244C439.524 258.868 438.871 257.115 439.938 256.025L439.984 256.862C440.035 259.101 440.035 261.347 439.997 263.592L439.958 264.481C438.89 263.359 439.505 261.632 439.33 260.244Z" fill="#2F3A53"/>
<path d="M298.352 261.146C298.728 260.088 299.161 259.063 299.575 258.024C299.64 258.271 299.769 258.758 299.841 259.004C299.666 263.631 299.983 268.285 299.388 272.886C299.012 275.988 300.015 279.077 299.517 282.173C298.805 287.514 296.508 292.446 294.612 297.444C294.108 299.3 292.173 299.819 290.594 300.41C289.067 299.806 287.54 299.183 285.942 298.794C287.559 297.697 287.76 295.588 288.543 293.939C290.406 288.864 295.751 285.976 297.336 280.758C298.546 274.294 298.139 267.681 298.352 261.146Z" fill="#07152F"/>
<path d="M246.496 261.542C248.152 262.567 249.861 263.54 251.692 264.241C251.744 265.228 252.061 266.26 251.763 267.24C250.307 271.718 247.855 275.761 245.286 279.674C248.146 276.293 250.035 272.256 251.757 268.213C251.97 267.337 252.818 267.045 253.536 266.701C253.866 266.922 254.52 267.369 254.85 267.59C255.367 273.34 253.607 278.954 251.75 284.314C250.404 287.793 249.311 291.466 247.072 294.504C246.172 295.776 244.801 296.6 243.312 296.983C242.982 297.086 242.309 297.288 241.973 297.392C242.478 300 244.089 302.181 245.046 304.621C243.526 302.493 242.225 300.221 241.242 297.8C234.305 299.858 227.058 300.675 220.225 303.148C220.011 303.038 219.578 302.811 219.358 302.7C224.03 294.186 231.277 287.631 237.21 280.07C241.643 274.755 246.36 268.817 246.496 261.542ZM244.121 280.557C243.383 280.57 242.736 282.114 243.798 282.127C244.587 282.127 245.234 280.544 244.121 280.557ZM242.16 283.14C241.384 283.146 240.724 284.723 241.837 284.717C242.568 284.684 243.248 283.133 242.16 283.14ZM239.618 286.378C238.763 286.586 237.987 287.65 238.278 288.526C239.229 288.968 240.666 286.852 239.618 286.378ZM237.036 289.63C236.182 289.824 235.373 290.889 235.683 291.758C236.634 292.213 238.071 290.116 237.036 289.63ZM234.409 292.875C233.664 292.894 232.985 294.452 234.072 294.465C234.816 294.439 235.496 292.881 234.409 292.875ZM232.487 295.464C231.613 295.964 230.824 297.262 231.206 298.261C232.215 298.365 233.464 296.016 232.487 295.464ZM117.69 318.905C117.903 318.711 118.33 318.328 118.55 318.133C118.634 318.289 118.809 318.6 118.893 318.75C122.666 327.336 127.027 335.643 130.89 344.19C131.019 344.469 131.272 345.04 131.395 345.326C135.549 355.294 140.052 365.126 143.825 375.244L143.23 375.147C138.855 365.405 135.076 355.391 130.599 345.696C130.405 345.306 130.21 344.923 130.016 344.547C126.995 337.285 123.306 330.334 119.993 323.208C119.301 321.729 118.628 320.236 117.69 318.905ZM528.076 381.396C528.788 376.432 527.571 370.954 529.894 366.366C529.603 369.689 528.497 373.05 529.48 376.373C529.079 378.002 528.859 379.67 528.95 381.357C528.73 381.364 528.29 381.383 528.076 381.396ZM210.862 411.587C212.046 411.392 213.689 411.438 214.136 412.827C212.887 412.989 211.709 412.489 210.862 411.587ZM237.307 427.364C242.432 426.76 247.421 425.339 252.294 423.678C250.786 424.671 249.136 425.456 247.382 425.891C244.089 426.709 240.75 427.831 237.307 427.364ZM262.181 472.047C274.035 470.697 286.11 471.515 297.861 469.263C300.727 470.626 303.95 469.691 306.978 470.269C290.95 471.975 274.767 471.119 258.751 473.02C259.877 472.644 261.003 472.229 262.181 472.047Z" fill="#131C2E"/>
<path d="M231.218 269.926C232.377 268.447 233.438 266.883 234.169 265.143C234.519 265.409 235.211 265.948 235.56 266.221C233.852 271.367 230.3 275.521 227.336 279.966C225.68 282.367 223.402 284.23 221.564 286.482C219.228 289.357 216.86 292.206 214.699 295.211C213.088 297.456 210.577 299.241 210.079 302.116C209.768 303.375 210.467 304.556 210.855 305.711C213.32 304.576 215.741 303.343 218.064 301.934C218.387 302.129 219.034 302.505 219.358 302.7C219.578 302.81 220.011 303.038 220.225 303.148C216.245 304.861 212.22 306.704 208.933 309.599C207.866 304.693 209.509 299.786 211.819 295.503C217.481 287.202 225.007 280.362 230.636 272.055C231.05 271.425 231.063 270.64 231.218 269.926Z" fill="#30405B"/>
<path d="M228.566 273.347C229.141 272.75 229.892 272.393 230.636 272.055C225.007 280.362 217.481 287.203 211.819 295.503C211.075 295.633 210.338 295.763 209.6 295.899C213.553 286.631 221.551 280.2 228.566 273.347Z" fill="#FAFDFF"/>
<path d="M259.968 275.715C263.689 278.759 267.312 282.03 271.745 284.016C271.615 284.224 271.344 284.639 271.208 284.847C273.285 285.684 275.478 286.339 277.743 286.015C278.131 286.034 278.908 286.067 279.296 286.086C279.885 288.546 279.775 291.083 279.561 293.582C275.459 292.141 272.081 289.338 268.891 286.469C265.345 283.419 262.116 279.901 259.968 275.715Z" fill="#9D553B"/>
<path d="M302.274 277.649C302.565 277.876 303.147 278.331 303.438 278.558C304.092 284.6 303.594 290.953 300.831 296.457C299.867 298.371 298.631 300.143 297.66 302.058C296.663 302.226 295.635 302.291 294.787 301.655C295.803 298.819 297 296.054 298.223 293.309C300.455 288.377 301.853 283.055 302.274 277.649Z" fill="#FAFEFF"/>
<path d="M271.208 284.847C271.343 284.639 271.615 284.224 271.745 284.016C273.705 284.795 275.731 285.385 277.743 286.015C275.478 286.339 273.285 285.684 271.208 284.847Z" fill="#653122"/>
<path d="M209.6 295.899C210.338 295.763 211.075 295.633 211.819 295.503C209.509 299.786 207.866 304.693 208.933 309.599C208.448 310.092 207.969 310.605 207.516 311.131C205.193 306.127 207.82 300.643 209.6 295.899Z" fill="#E7B120"/>
<path d="M232.487 295.464C233.464 296.016 232.215 298.365 231.206 298.261C230.824 297.262 231.613 295.964 232.487 295.464ZM152.962 549.114C157.841 552.651 163.185 555.61 168.944 557.44C174.723 559.426 180.74 560.517 186.732 561.639C202.624 564.534 218.775 565.469 234.836 566.961C241.358 567.305 247.887 567.61 254.403 568.097C283.683 568.941 313.015 569.044 342.269 567.454C353.108 567.299 363.894 566.234 374.681 565.287C384.782 564.06 395.232 562.931 404.343 558.018C404.181 560.153 403.761 562.282 403.903 564.437C404.919 566.422 407.404 566.838 409.319 567.552C416.948 569.674 424.797 570.887 432.627 572.03C441.931 573.178 451.333 574.191 460.722 573.782C463.984 573.782 465.802 570.79 466.527 567.973C470.985 568.979 475.469 569.914 480.031 570.297C484.341 570.777 489.414 571.511 492.973 568.408C495.276 566.747 495.846 562.769 493.464 560.958C490.857 558.589 487.938 556.603 485.02 554.663C483.461 553.293 481.726 552.151 480.005 551.016C481.908 548.634 485.039 550.36 487.498 550.646C495.832 551.963 504.038 554.04 512.074 556.616C515.413 557.797 518.855 558.992 521.651 561.244C523.417 562.431 523.411 565.481 521.651 566.682C517.244 570.161 511.55 571.199 506.276 572.679C482.425 578.299 457.908 580.116 433.552 582.108C423.192 582.738 412.833 583.244 402.486 583.945C396.209 583.724 389.984 584.698 383.714 584.549C376.389 584.704 369.045 584.477 361.74 585.146C336.717 585.301 311.682 585.418 286.653 585.282C280.409 585.133 274.145 585.405 267.914 584.854C262.602 584.529 257.27 584.834 251.97 584.432C245.597 583.88 239.184 584.27 232.81 583.705C199.784 582.329 166.641 580.564 134.002 574.918C126.716 573.633 119.43 572.017 112.591 569.122C110.559 568.084 108.262 566.98 107.162 564.865C106.359 563.489 107.194 561.86 108.314 560.984C110.319 559.335 112.778 558.381 115.173 557.46C127.376 553.118 140.272 551.379 152.962 549.114Z" fill="#E9E9EC"/>
<path d="M241.973 297.392C242.309 297.288 242.982 297.087 243.312 296.983C245.467 298.157 246.024 300.857 247.751 302.493C253.465 308.346 261.54 312.383 269.855 311.702C273.841 311.501 277.18 308.69 279.406 305.562C281.101 303.161 280.953 300.072 280.597 297.301C281.412 297.489 282.227 297.684 283.049 297.891C283.955 303.511 281.496 309.56 276.624 312.584C271.078 316.141 263.909 315.33 258.027 313.078C254.481 311.857 251.724 309.151 248.256 307.762C246.884 307.068 245.765 305.991 245.046 304.621C244.089 302.181 242.478 300 241.973 297.392Z" fill="#6BA4D8"/>
<path d="M195.513 305.024C199.053 302.493 202.527 299.76 206.52 297.989C206.85 297.898 207.497 297.716 207.82 297.625C207.38 300.202 206.591 302.7 206.132 305.277C205.698 307.633 206.242 310.001 206.688 312.312C205.057 314.836 203.789 317.627 203.233 320.593C201.725 328.906 200.664 337.304 200.198 345.741C199.02 353.964 199.188 362.284 199.117 370.571C199.15 376.62 199.098 382.675 199.454 388.717C198.91 390.242 198.936 391.923 199.868 393.299C199.913 393.571 200.004 394.123 200.049 394.396C200.217 396.459 200.489 398.53 201.104 400.516L201.233 401.054C201.848 405.974 205.827 409.984 210.434 411.412L210.862 411.587C211.709 412.489 212.887 412.989 214.136 412.827L214.621 412.879C215.32 413.236 216.006 413.625 216.718 413.982C216.938 417.915 218.193 421.952 221.279 424.573C222.813 435.444 221.784 446.899 226.327 457.166C222.671 456.283 219.066 455.186 215.365 454.498C213.062 450.26 211.651 445.633 209.774 441.207C207.503 435.34 204.617 429.72 201.22 424.437C200.327 423.068 199.603 421.595 199.072 420.044C198.8 419.148 198.464 418.239 197.758 417.584C195.338 415.059 192.808 412.639 190.116 410.413C191.935 405.973 193.468 401.346 193.598 396.511C194.775 384.2 193.268 371.869 193.565 359.539C193.727 349.336 194.348 339.108 196.031 329.03C197.506 322.261 198.755 315.31 197.855 308.366C197.635 306.945 196.4 306.043 195.513 305.024Z" fill="#540604"/>
<path d="M220.225 303.148C227.058 300.676 234.305 299.858 241.242 297.801C242.225 300.221 243.526 302.493 245.046 304.621C245.765 305.991 246.884 307.068 248.256 307.762C251.543 310.248 254.966 312.675 258.958 313.876C264.937 315.816 272.081 316.394 277.478 312.604C282.137 309.554 284.214 303.693 283.631 298.287C284.401 298.45 285.171 298.618 285.941 298.794C287.54 299.183 289.067 299.806 290.594 300.409C291.966 300.89 293.409 301.175 294.787 301.656C295.635 302.292 296.663 302.227 297.66 302.058C297.731 302.24 297.867 302.59 297.932 302.765C300.481 305.212 304.04 306.088 306.945 308.009C309.909 309.664 312.756 311.819 314.218 314.986C317.033 320.697 318.632 326.914 320.146 333.066C323.245 346.494 326.073 359.999 329.968 373.226C331.392 377.379 332.589 381.747 335.281 385.303C333.993 388.814 332.324 392.163 330.874 395.609C326.953 394.882 322.598 393.377 320.838 389.431C316.302 380.332 314.011 370.156 313.571 360.025C314.348 355.145 315.875 349.927 313.921 345.131C312.381 341.289 310.685 337.499 309.217 333.631C307.69 330.152 306.79 326.395 304.81 323.13C307.043 330.866 310.453 338.206 313.487 345.65C314.671 348.396 314.322 351.439 313.804 354.288C308.751 362.161 300.261 366.969 291.933 370.682C289.054 372.109 285.728 372.492 283.062 374.342C289.591 374.387 296.062 373.193 302.319 371.409C304.719 370.818 307.191 369.676 309.683 370.468C307.269 376.341 307.677 382.772 308.175 388.957C308.233 391.112 308.453 393.253 308.667 395.402C303.49 395.681 298.307 395.752 293.124 395.694C289.099 395.609 284.854 396.07 281.101 394.298C279.244 393.13 276.624 393.941 275.672 395.908C273.628 400.061 272.916 405.227 275.051 409.504C272.573 412.048 269.402 413.671 265.992 414.547C257.69 416.28 249.149 415.962 240.718 416.02C231.917 416.065 223.266 414.248 214.621 412.879L214.136 412.827C213.689 411.438 212.046 411.393 210.862 411.587L210.434 411.412C208.331 410.088 206.17 408.771 204.488 406.915C202.98 405.227 202.133 403.099 201.233 401.054L201.104 400.516C200.877 398.452 200.528 396.414 200.049 394.396C200.004 394.123 199.913 393.571 199.868 393.299C200.25 391.754 200.198 390.138 199.454 388.717C199.098 382.675 199.15 376.62 199.117 370.571C199.188 362.284 199.02 353.964 200.198 345.741C200.664 337.304 201.725 328.906 203.233 320.593C203.789 317.627 205.057 314.836 206.688 312.312C206.947 311.909 207.225 311.514 207.516 311.131C207.969 310.605 208.448 310.092 208.933 309.599C212.22 306.705 216.245 304.862 220.225 303.148ZM233.483 356.839C233.017 357.773 232.966 358.844 233.211 359.857C232.979 361.654 232.797 363.472 232.849 365.295C232.403 366.035 232.448 366.892 232.551 367.729C232.04 371.999 232.027 376.341 231.083 380.553C227.873 379.677 225.026 377.821 221.765 377.094C224.476 379.417 228.397 379.449 231.251 381.539C228.164 381.779 225.065 381.643 221.978 381.624L221.985 382.227C226.883 382.325 231.898 381.656 236.686 383.032C247.635 385.842 258.738 387.964 269.875 389.905C273.207 390.346 276.067 392.163 279.134 393.377C277.251 391.397 274.546 390.573 272.01 389.827C265.513 388.211 258.771 387.718 252.384 385.634C250.359 383.473 247.687 382.045 245.752 379.78C239.21 372.81 236.971 363.225 234.357 354.314C234.014 349.077 235.056 343.866 234.687 338.635C233.729 344.638 233.626 350.758 233.483 356.839Z" fill="#8E100D"/>
<path d="M180.98 320.385C185.393 314.895 189.896 309.346 195.513 305.024C196.4 306.043 197.635 306.945 197.855 308.366C198.755 315.31 197.506 322.261 196.031 329.03C194.348 339.108 193.727 349.336 193.565 359.539C193.268 371.869 194.775 384.2 193.598 396.511C193.468 401.346 191.935 405.973 190.117 410.413C181.976 403.689 172.93 398.127 163.451 393.539C160.772 392.241 158.106 390.846 155.207 390.119C161.257 393.377 167.637 396.025 173.519 399.62C182.928 405.175 191.851 411.775 199.072 420.044C199.603 421.595 200.327 423.068 201.22 424.437C204.617 429.72 207.503 435.34 209.774 441.207C211.651 445.633 213.062 450.26 215.365 454.498C210.887 453.616 206.345 453.135 201.809 452.675C199.596 452.512 197.344 452.188 195.151 452.688C202.223 453.187 209.315 453.765 216.258 455.251C217.837 462.013 223.35 466.985 228.928 470.645C233.367 473.786 238.362 475.96 243.073 478.634C238.983 481.256 234.318 483.19 230.921 486.753C236.123 483.534 241.164 479.964 246.839 477.596C248.139 478.582 249.647 479.283 251.304 479.322C260.065 479.906 268.833 479.179 277.594 479.004C284.919 479.043 292.218 477.92 299.543 478.511C312.659 479.341 326.222 481.308 337.727 488.116C345.349 492.49 352.286 498.772 355.761 507.021C359.371 514.432 360.368 523.083 358.685 531.15C356.692 537.744 352.402 543.844 346.326 547.245C334.77 553.761 321.505 556.071 308.557 558.025C293.823 560.257 278.882 560.29 264.019 560.114C239.087 559.044 214.175 554.403 190.99 545.012C181.342 540.677 171.863 535.738 163.632 529.008C143.922 513.913 130.728 490.244 129.33 465.297C128.056 450.721 130.993 436.242 134.268 422.114C135.012 418.518 136.946 414.904 135.814 411.178C136.028 410.237 136.254 409.296 136.519 408.375C139.425 399.737 143.365 391.501 146.549 382.974C146.678 382.681 146.937 382.084 147.067 381.786C148.29 379.17 149.28 376.464 150.289 373.764C153.453 368.404 155.776 362.615 158.682 357.118C162.26 349.732 166.77 342.821 170.219 335.377C174.011 330.535 177.065 325.149 180.98 320.385Z" fill="#540604"/>
<path d="M148.762 310.787C150.71 308.801 153.182 307.406 155.88 306.737C159.096 310.45 157.206 315.596 155.615 319.594C150.91 330.691 141.948 339.706 131.395 345.326C131.272 345.04 131.019 344.469 130.89 344.19C132.093 341.685 132.559 338.933 133.433 336.318C136.416 326.759 141.567 317.783 148.762 310.787Z" fill="black"/>
<path d="M394.546 311.053C404.518 311.403 414.502 311.189 424.48 311.26C457.183 311.131 489.886 311.338 522.589 311.189L522.233 311.663C521.243 312.214 520.072 312.143 518.985 312.195C479.72 312.117 440.45 312.137 401.185 312.182C398.946 312.13 396.513 312.331 394.546 311.053Z" fill="#767B87"/>
<path d="M115.392 321.489C117.314 320.911 118.136 324.506 119.993 323.208C123.306 330.334 126.995 337.285 130.016 344.547C123.474 340.426 116.227 337.408 108.65 335.89C108.741 335.649 108.928 335.169 109.019 334.929C107.615 334.41 106.217 333.884 104.813 333.372C105.499 330.036 107.427 327.109 108.974 324.117C110.682 322.546 113.186 322.06 115.392 321.489Z" fill="#EEF8FF"/>
<path d="M519.263 331.36C519.813 330.12 521.495 329.556 522.563 330.529C525.1 332.904 525.675 336.578 526.225 339.855C526.717 344.223 526.776 348.915 524.686 352.913C523.896 354.353 524.174 356.028 524.129 357.598C524.291 365.406 524.485 373.213 524.44 381.02L523.644 381.014C523.67 372.973 523.501 364.938 523.391 356.904C523.243 355.697 523.566 354.217 522.537 353.334C519.269 350.252 518.493 345.592 517.911 341.348C517.626 337.999 517.639 334.39 519.263 331.36Z" fill="black"/>
<path d="M92.2725 335.279C97.6821 334.286 103.286 334.773 108.65 335.889C116.227 337.408 123.474 340.426 130.016 344.547C130.21 344.923 130.405 345.306 130.599 345.696C124.581 347.448 118.382 348.532 112.099 348.564C105.188 348.181 98.0315 347.409 91.8649 343.989C90.0207 342.911 88.1119 341.471 87.4584 339.342C87.4454 336.837 90.176 335.669 92.2725 335.279Z" fill="black"/>
<path d="M112.099 348.564C118.382 348.531 124.581 347.448 130.599 345.695C135.076 355.391 138.855 365.405 143.23 375.146C141.133 374.887 139.263 373.842 137.354 373.024C126.749 368.546 115.153 365.528 103.577 366.664C100.613 367.138 97.268 367.651 95.1456 369.987C93.7544 371.635 95.5079 373.66 96.8215 374.699C100.652 377.548 105.428 378.651 110.009 379.657C121.333 381.649 133.077 380.552 144.006 377.054C144.478 378.171 144.97 379.28 145.436 380.41C145.727 381.292 146.031 382.188 146.549 382.973C143.365 391.501 139.425 399.737 136.519 408.375C129.233 404.318 120.873 402.436 112.565 402.436C110.235 402.423 107.945 402.962 105.622 402.923C102.522 401.456 100.076 398.854 96.8927 397.51C96.0903 396.148 95.2685 394.707 93.8515 393.902C89.3608 391.073 84.4171 388.86 80.3858 385.355C78.8587 384.102 79.8876 382.091 80.6706 380.734C84.0418 375.581 86.753 370.045 90.0725 364.86C92.8808 359.538 95.5856 354.126 99.1639 349.258C101.953 348.914 104.735 349.232 107.492 349.687C109.142 350.076 110.611 349.096 112.099 348.564Z" fill="#EDF7FF"/>
<path d="M501.481 346.591C502.29 345.553 503.733 346.065 504.717 346.526C507.046 347.772 508.787 349.849 510.398 351.9C513.763 356.196 516.274 361.122 518.124 366.249C519.502 371.22 519.612 376.451 519.606 381.584L518.991 381.532C518.804 380.221 518.674 378.911 518.538 377.6C517.788 376.814 516.901 376.12 516.409 375.134L516.138 374.608C516.953 375.004 517.742 375.458 518.551 375.912C518.299 372.447 518.331 368.793 516.798 365.606C515.135 363.672 512.585 362.907 510.573 361.44C507.318 359.162 504.387 356.293 502.374 352.847C501.43 350.972 500.446 348.622 501.481 346.591Z" fill="black"/>
<path d="M536.449 352.4C538.164 350.323 540.092 347.928 542.868 347.396C544.894 347.487 544.602 350.258 544.201 351.66C542.04 358.63 535.511 362.602 529.649 366.152C531.092 361.232 533.415 356.527 536.449 352.4Z" fill="black"/>
<path d="M351.936 348.791C358.847 348.259 365.79 348.85 372.714 348.681C392.34 348.623 411.965 348.713 431.598 348.642C434.011 348.7 436.522 348.337 438.884 349.012C440.987 349.947 441.129 352.705 440.171 354.535C435.053 366.366 429.333 377.931 424.195 389.755C421.568 395.895 418.365 401.768 415.835 407.946C415.026 409.679 414.45 411.626 413.072 413.015C411.493 413.657 409.765 413.755 408.089 413.898C396.882 413.735 385.675 413.807 374.461 413.872C362.6 413.768 350.733 413.794 338.872 414.034C335.035 413.67 331.178 414.027 327.341 413.82C328.124 410.419 329.684 407.278 331.068 404.098C338.801 385.582 348.015 367.716 355.444 349.07C354.272 348.973 353.101 348.882 351.936 348.791ZM389.764 376.659C385.701 378.216 382.394 384.687 386.574 387.821C391.861 389.924 397.193 382.857 395.077 377.989C394.158 375.984 391.537 375.906 389.764 376.659Z" fill="#CCCCCC"/>
<path d="M335.281 385.303C340.833 373.135 346.333 360.941 351.936 348.792C353.101 348.882 354.272 348.973 355.444 349.071C348.015 367.716 338.801 385.583 331.068 404.098C329.684 407.278 328.124 410.419 327.341 413.82C326.351 413.755 325.368 413.638 324.391 413.56C323.931 412.295 323.291 411.114 322.462 410.062C321.88 409.251 321.317 408.44 320.78 407.609C321.958 408.297 323.096 409.037 324.235 409.796C324.766 408.725 325.296 407.668 325.808 406.603C325.892 406.422 326.06 406.071 326.144 405.889C326.623 404.974 327.134 404.079 327.639 403.183C329.037 400.801 329.923 398.179 330.874 395.609C332.324 392.163 333.993 388.815 335.281 385.303Z" fill="#465B7E"/>
<path d="M234.357 354.314C236.971 363.225 239.21 372.81 245.752 379.78C247.687 382.045 250.359 383.473 252.384 385.634C245.402 384.79 238.666 382.701 231.756 381.455C231.95 376.873 233.134 372.324 232.552 367.729C232.448 366.892 232.403 366.035 232.849 365.295C232.927 365.71 233.082 366.541 233.16 366.956C234.02 364.659 233.716 362.193 233.212 359.856C232.966 358.844 233.017 357.773 233.483 356.839C233.574 357.41 233.742 358.558 233.826 359.136C234.286 357.572 234.409 355.937 234.357 354.314Z" fill="#18171C"/>
<path d="M291.933 370.682C300.261 366.969 308.751 362.161 313.804 354.288C313.002 359.805 311.533 365.211 309.683 370.468C307.191 369.676 304.72 370.818 302.319 371.409C296.062 373.193 289.591 374.387 283.062 374.342C285.728 372.492 289.054 372.109 291.933 370.682Z" fill="black"/>
<path d="M547.191 360.59C548.692 359.947 550.471 359.337 552.063 360.058C553.215 361.511 552.51 363.608 551.552 364.99C548.498 369.299 542.959 371.791 537.724 370.844C534.67 371.778 532.599 374.673 529.726 376.042C531.111 373.213 534.353 372.142 536.553 370.072C540.028 366.853 542.797 362.68 547.191 360.59Z" fill="black"/>
<path d="M233.211 359.856C233.716 362.193 234.02 364.659 233.16 366.956C233.082 366.541 232.927 365.71 232.849 365.295C232.797 363.471 232.978 361.654 233.211 359.856Z" fill="#2E4D7D"/>
<path d="M308.803 376.516C309.993 370.915 312.064 365.542 313.571 360.025C314.012 370.156 316.302 380.332 320.838 389.431C322.598 393.377 326.953 394.882 330.874 395.609C329.923 398.179 329.037 400.801 327.639 403.183C325.62 401.398 323.621 399.594 321.653 397.757C320.495 396.719 319.227 395.577 317.59 395.538C314.62 395.337 311.637 395.434 308.667 395.402C308.453 393.253 308.233 391.112 308.175 388.957C308.822 384.836 308.214 380.644 308.803 376.516Z" fill="#1E1E21"/>
<path d="M496.376 362.965C497.211 361.414 499.32 361.764 500.718 362.186C504.607 363.543 507.512 366.664 510.01 369.818C511.615 371.953 514.701 372.375 516.138 374.608L516.409 375.133C514.617 374.433 513.09 373.225 511.401 372.323C510.172 371.499 508.645 371.927 507.273 371.804C504.115 371.694 501.1 370.195 498.744 368.137C497.36 366.82 495.917 365.003 496.376 362.965Z" fill="black"/>
<path d="M145.067 376.542C146.426 375.114 148.529 374.601 150.289 373.764C149.28 376.464 148.29 379.17 147.067 381.786C146.782 381.078 146.439 380.403 146.038 379.761C145.688 378.69 145.294 377.639 145.067 376.542Z" fill="#FEFEFE"/>
<path d="M58.8836 377.392C64.9725 379.787 70.8286 382.759 76.6134 385.816C82.8382 389.028 89.0113 392.371 94.9514 396.102C94.8544 405.091 94.7573 414.086 95.0096 423.074C94.6602 423.509 94.3043 423.944 93.9549 424.392C93.5084 418.57 92.9779 412.755 93.2108 406.914C93.1202 403.754 93.5408 400.554 92.9455 397.433C91.632 395.59 89.2248 395.025 87.3613 393.896C79.9458 389.496 72.4204 385.232 64.5002 381.812C63.3549 381.299 62.1254 381.052 60.9024 380.812C60.113 391.066 61.996 401.255 64.2931 411.198C65.639 417.292 67.4961 423.269 69.735 429.09C70.4209 430.693 71.0162 432.446 72.3039 433.685C74.491 434.308 76.7751 433.776 78.9946 433.679C82.0035 433.38 84.9994 433.867 87.9889 434.113C90.9719 434.373 93.9743 433.951 96.9444 434.341C98.0056 434.36 98.5557 435.34 99.2027 436.035C89.7037 435.788 80.1917 435.976 70.7056 435.45C70.298 434.762 69.8968 434.088 69.4891 433.413C62.2678 415.708 58.56 396.524 58.8836 377.392Z" fill="#216471"/>
<path d="M518.538 377.6C518.674 378.911 518.804 380.222 518.991 381.533L519.606 381.585C522.427 381.643 525.255 381.61 528.076 381.396C528.29 381.383 528.73 381.364 528.95 381.358C531.434 381.578 533.939 381.455 536.43 381.591C538.682 381.649 540.306 383.759 540.597 385.861C541.102 389.314 540.688 392.838 541.231 396.297C541.794 400.412 542.474 404.818 540.862 408.79C539.795 411.529 537.187 413.366 534.379 413.963C527.287 415.611 519.761 415.689 512.708 413.813C509.654 413.008 506.781 410.705 506.186 407.473C505.519 403.215 506.127 398.906 506.431 394.655C506.697 391.599 506.522 388.535 506.729 385.485C506.82 383.765 507.997 381.721 509.887 381.656C512.74 381.468 515.614 381.656 518.474 381.604C518.506 380.267 518.532 378.93 518.538 377.6Z" fill="#540604"/>
<path d="M145.436 380.41C145.591 380.248 145.889 379.923 146.038 379.761C146.439 380.403 146.782 381.078 147.067 381.786C146.937 382.084 146.678 382.681 146.549 382.973C146.031 382.188 145.727 381.292 145.436 380.41Z" fill="#202E3E"/>
<path d="M60.9025 380.812C62.1255 381.052 63.3549 381.299 64.5003 381.812C72.4204 385.232 79.9459 389.496 87.3613 393.896C89.2249 395.025 91.632 395.59 92.9456 397.433C93.5409 400.554 93.1203 403.754 93.2109 406.914C92.9779 412.755 93.5085 418.57 93.955 424.392C94.3044 423.944 94.6603 423.509 95.0097 423.074C95.0938 424.645 95.1262 426.228 95.0745 427.812C94.408 427.377 93.7156 426.975 93.0297 426.579C93.9291 427.663 94.8544 428.727 95.812 429.765L95.9221 429.201C96.1291 428.279 96.2974 427.345 96.265 426.404C96.045 416.766 96.485 407.135 96.8927 397.511C100.076 398.854 102.522 401.457 105.622 402.923C107.945 402.962 110.235 402.424 112.565 402.437C120.873 402.437 129.233 404.319 136.519 408.375C136.254 409.296 136.028 410.237 135.814 411.178C135.005 412.846 134.177 414.514 133.498 416.247C130.579 416.656 127.655 417.039 124.73 417.357C126.897 419.064 129.013 420.861 131.22 422.529C127.752 434.38 124.587 446.379 122.931 458.639C121.067 459.106 119.256 459.735 117.483 460.462C110.048 463.467 102.516 466.238 95.0938 469.263C85.4718 460.514 77.5128 449.89 71.7862 438.209C81.2594 437.923 90.7261 437.332 100.206 437.248C99.8692 436.839 99.5393 436.43 99.2028 436.035C98.5557 435.34 98.0056 434.36 96.9444 434.341C93.9744 433.951 90.972 434.373 87.989 434.113C84.9995 433.867 82.0035 433.38 78.9946 433.679C76.7752 433.776 74.491 434.308 72.3039 433.685C71.0162 432.446 70.421 430.693 69.7351 429.09C67.4962 423.269 65.6391 417.292 64.2932 411.198C61.996 401.255 60.1131 391.066 60.9025 380.812ZM75.8758 405.954C75.4358 406.804 76.5552 408.232 77.487 407.868C77.9205 407.005 76.8076 405.578 75.8758 405.954ZM80.1659 411.574C80.8777 412.736 81.7965 413.761 82.89 414.592C82.1847 413.411 81.2594 412.392 80.1659 411.574ZM121.093 414.547C119.78 424.781 118.401 435.003 117.043 445.231C116.958 446.431 116.499 447.788 117.437 448.794C118.951 439.163 120.336 429.512 122.154 419.933C122.349 418.09 123.513 415.384 121.093 414.547ZM83.4077 415.475C84.1195 416.643 85.0383 417.675 86.1383 418.486C85.4266 417.318 84.5013 416.292 83.4077 415.475ZM86.6301 419.388C87.536 420.77 88.6813 421.984 89.9949 422.99C89.1019 421.595 87.9631 420.368 86.6301 419.388ZM106.295 439.961C108.165 442.109 110.119 444.218 112.435 445.899C110.539 443.77 108.579 441.668 106.295 439.961ZM119.171 451.63C119.993 452.72 121.022 453.642 122.193 454.349C121.358 453.265 120.336 452.343 119.171 451.63Z" fill="black"/>
<path d="M199.454 388.717C200.198 390.138 200.25 391.754 199.868 393.299C198.936 391.923 198.91 390.242 199.454 388.717Z" fill="#87723D"/>
<path d="M155.207 390.119C158.106 390.846 160.772 392.241 163.451 393.539C172.93 398.127 181.976 403.689 190.117 410.412C192.808 412.638 195.338 415.059 197.758 417.584C198.464 418.239 198.8 419.148 199.072 420.043C191.851 411.775 182.928 405.175 173.519 399.62C167.637 396.024 161.257 393.377 155.207 390.119ZM200.049 394.395C200.528 396.414 200.877 398.452 201.104 400.515C200.489 398.529 200.217 396.459 200.049 394.395ZM305.981 399.406C308.492 399.062 311.197 399.425 313.222 401.067C315.739 403.027 318.787 404.585 320.418 407.447C316.199 403.903 311.934 399.334 305.981 399.406ZM306.292 403.183C307.968 403.287 309.721 403.449 311.132 404.474C313.429 406.058 315.862 407.531 317.79 409.582C313.869 407.83 311.048 403.248 306.26 403.988C306.266 403.786 306.279 403.384 306.292 403.183ZM195.151 452.687C197.344 452.188 199.596 452.512 201.809 452.675C206.345 453.135 210.888 453.616 215.365 454.498C219.067 455.186 222.671 456.283 226.327 457.165C226.534 457.412 226.954 457.912 227.161 458.165C223.59 456.964 219.94 456.01 216.258 455.251C209.315 453.765 202.223 453.187 195.151 452.687ZM344.793 456.348C345.026 456.594 345.485 457.094 345.718 457.341C346.068 459.787 346.294 462.254 346.786 464.681C346.572 464.733 346.139 464.843 345.925 464.895C345.951 462 345.285 459.177 344.793 456.348ZM256.034 473.377C256.759 473.299 257.49 473.228 258.221 473.17C254.449 474.701 250.508 475.804 246.839 477.596C241.164 479.964 236.123 483.534 230.921 486.753C234.318 483.19 238.983 481.256 243.073 478.634C247.227 476.512 251.582 474.772 256.034 473.377ZM394.902 530.981C395.4 530.507 395.931 530.066 396.468 529.644C397.917 532.441 400.325 534.512 402.447 536.777C403.036 537.776 403.482 538.866 403.819 539.989C400.033 540.346 395.821 541.099 392.443 538.853C392.89 536.134 393.459 533.369 394.902 530.981Z" fill="#06070F"/>
<path d="M275.672 395.908C276.624 393.941 279.244 393.13 281.101 394.298C279.768 395.265 277.95 396.012 277.568 397.803C276.889 400.126 276.766 402.592 276.947 405.007C276.98 406.915 278.487 408.258 279.581 409.653C278.073 409.536 276.559 409.504 275.051 409.504C272.916 405.227 273.628 400.061 275.672 395.908Z" fill="#B06240"/>
<path d="M277.568 397.803C277.95 396.011 279.768 395.265 281.101 394.298C284.854 396.07 289.099 395.609 293.124 395.693C298.307 395.752 303.49 395.681 308.667 395.401C311.637 395.434 314.62 395.337 317.59 395.538C319.227 395.577 320.495 396.719 321.653 397.757C323.621 399.594 325.62 401.398 327.639 403.183C327.134 404.078 326.623 404.974 326.144 405.889C322.864 403.241 319.965 400.087 316.322 397.932C319.233 401.087 322.889 403.436 325.808 406.603C325.296 407.667 324.766 408.725 324.235 409.796C323.096 409.037 321.958 408.297 320.78 407.609C321.317 408.44 321.88 409.251 322.462 410.062C319.589 410.296 316.697 410.049 313.83 410.406C311.106 410.756 308.576 409.53 306.001 408.887C304.208 408.479 302.377 408.946 300.604 409.199C293.674 410.477 286.563 410.51 279.581 409.653C278.487 408.258 276.98 406.915 276.947 405.006C276.766 402.592 276.889 400.126 277.568 397.803ZM305.981 399.406C311.934 399.334 316.199 403.903 320.418 407.447C318.787 404.585 315.739 403.027 313.222 401.067C311.197 399.425 308.492 399.062 305.981 399.406ZM306.292 403.183C306.279 403.384 306.266 403.786 306.26 403.988C311.048 403.248 313.869 407.83 317.79 409.582C315.862 407.531 313.429 406.058 311.132 404.474C309.721 403.449 307.968 403.287 306.292 403.183Z" fill="#C97E63"/>
<path d="M316.322 397.932C319.965 400.087 322.863 403.241 326.144 405.889C326.06 406.071 325.892 406.421 325.808 406.603C322.889 403.436 319.233 401.086 316.322 397.932ZM398.047 528.405C399.671 526.185 401.949 524.621 404.543 523.745C402.408 525.341 400.273 526.938 398.047 528.405ZM426.389 535.569C429.113 534.038 431.481 531.981 433.966 530.105C432.685 532.428 434.878 534.33 435.939 536.225C436.282 536.809 436.612 537.413 436.923 538.029C434.348 538.925 431.72 539.678 429.029 540.106C428.653 539.632 428.304 539.145 427.98 538.659C427.404 537.64 426.893 536.608 426.389 535.569Z" fill="#07080D"/>
<path d="M300.604 409.199C302.377 408.946 304.208 408.479 306.001 408.887C308.576 409.53 311.106 410.756 313.83 410.406C316.697 410.049 319.589 410.296 322.462 410.062C323.291 411.113 323.931 412.295 324.391 413.56C309.23 413.203 294.062 413.333 278.901 413.216C274.527 413.015 270.36 414.78 265.992 414.547C269.402 413.67 272.573 412.048 275.051 409.504C276.559 409.504 278.073 409.536 279.581 409.653C286.563 410.51 293.674 410.477 300.604 409.199Z" fill="#4D75A5"/>
<path d="M133.498 416.247C134.177 414.514 135.005 412.846 135.814 411.178C136.947 414.904 135.012 418.518 134.268 422.114C130.993 436.242 128.056 450.721 129.33 465.297C130.728 490.244 143.922 513.913 163.632 529.008C171.863 535.738 181.342 540.677 190.99 545.012C214.175 554.403 239.087 559.043 264.019 560.114C278.882 560.289 293.823 560.257 308.557 558.025C321.505 556.071 334.77 553.761 346.326 547.245C352.402 543.844 356.692 537.744 358.685 531.15C360.368 523.083 359.371 514.432 355.761 507.021C352.286 498.772 345.349 492.49 337.727 488.116C326.222 481.308 312.659 479.341 299.543 478.511C292.218 477.92 284.919 479.043 277.594 479.004C268.833 479.179 260.065 479.906 251.304 479.322C249.647 479.283 248.139 478.582 246.839 477.596C250.508 475.804 254.449 474.701 258.221 473.17L258.751 473.02C274.767 471.119 290.95 471.975 306.978 470.269C312.426 470.165 317.829 469.386 323.245 468.828C330.861 467.932 338.484 466.829 345.925 464.895C346.139 464.843 346.572 464.733 346.786 464.681C347.627 468.698 349.238 472.488 350.778 476.272C356.007 488.622 362.296 500.544 370.003 511.525C374.629 518.086 379.249 524.667 384.504 530.741C386.982 533.597 389.428 536.537 392.443 538.853C395.821 541.099 400.033 540.346 403.819 539.989C404.453 542.39 405.359 544.707 406.414 546.953C405.365 550.561 404.686 554.273 404.343 558.018C395.232 562.931 384.782 564.06 374.681 565.287C363.894 566.234 353.108 567.299 342.269 567.454C313.015 569.044 283.683 568.94 254.403 568.097C247.887 567.61 241.358 567.305 234.836 566.961C218.775 565.468 202.624 564.534 186.732 561.639C180.74 560.517 174.723 559.426 168.944 557.44C163.185 555.61 157.84 552.651 152.962 549.114C149.539 546.219 146.193 543.189 143.249 539.801C143.074 539.587 142.731 539.158 142.557 538.944C135.957 530.423 131.395 520.5 127.952 510.331C125.293 502.023 123.313 493.47 122.562 484.767C121.883 476.486 122.129 468.192 122.782 459.924C122.821 459.606 122.892 458.963 122.931 458.639C124.587 446.379 127.752 434.38 131.22 422.529C131.925 420.413 132.689 418.324 133.498 416.247Z" fill="#722D2D" fill-opacity="0.62"/>
<path d="M214.621 412.879C223.266 414.248 231.917 416.065 240.718 416.02C249.149 415.961 257.69 416.279 265.992 414.547C270.36 414.78 274.527 413.015 278.901 413.216C294.062 413.333 309.23 413.203 324.391 413.56C325.368 413.638 326.351 413.755 327.341 413.82C331.178 414.027 335.035 413.67 338.872 414.034C343.162 415.475 347.724 414.748 352.156 414.981C340.697 416 329.211 416.98 317.693 416.851C313.164 416.967 308.66 417.714 304.118 417.5C298.281 417.207 292.49 418.356 286.653 418.149C283.03 418.019 279.374 418.525 275.776 417.967C274.708 417.292 273.841 416.364 272.799 415.663C268.555 415.137 264.284 416.416 260.686 418.668C261.417 417.792 262.103 416.883 262.789 415.974C256.519 416.565 250.242 416.857 243.946 416.578C234.79 417.058 225.706 415.539 216.718 413.982C216.006 413.625 215.32 413.236 214.621 412.879Z" fill="#722D2D"/>
<path d="M216.718 413.982C225.705 415.54 234.79 417.058 243.946 416.578C250.242 416.857 256.519 416.565 262.789 415.974C262.103 416.883 261.417 417.792 260.686 418.668C257.794 420.167 255.031 421.906 252.294 423.678C247.421 425.339 242.432 426.761 237.307 427.364C231.879 427.111 226.23 427.195 221.279 424.573C218.193 421.952 216.938 417.915 216.718 413.982Z" fill="#1B1C1D"/>
<path d="M338.872 414.034C350.733 413.794 362.6 413.768 374.461 413.872C374.681 414.573 374.908 415.28 375.115 415.994C372.157 415.52 369.246 414.722 366.243 414.624C361.546 414.417 356.848 414.806 352.156 414.981C347.724 414.748 343.162 415.475 338.872 414.034Z" fill="#162035"/>
<path d="M374.461 413.872C385.675 413.807 396.882 413.735 408.089 413.898C411.331 415.299 414.191 417.532 416.1 420.537C420.643 426.988 423.742 434.308 426.848 441.531C434.93 461.027 443.458 480.354 450.499 500.258C453.488 508.137 455.707 516.275 457.565 524.498C456.691 523.777 455.837 523.051 455.002 522.311C454.595 516.437 452.66 510.824 450.673 505.327C448.557 499.096 446.079 493.009 443.937 486.785C441.051 480.263 438.955 473.423 435.842 466.998C432.633 459.21 429.391 451.428 426.072 443.686C423.891 437.871 421.141 432.296 418.294 426.787C415.777 422.737 413.298 418.291 408.989 415.903C405.346 413.554 400.713 415.338 397.335 417.344C392.65 420.121 390.761 425.651 389.971 430.758C389.376 433.763 391.55 436.281 392.657 438.884C395.756 445.659 399.095 452.35 401.606 459.372C401.476 459.619 401.218 460.112 401.088 460.359C397.672 452.889 394.591 445.27 390.916 437.923C387.978 432.121 385.358 426.086 381.436 420.861C379.825 418.674 377.366 417.402 375.115 415.994C374.908 415.28 374.681 414.572 374.461 413.872Z" fill="#30415B"/>
<path d="M121.093 414.547C123.513 415.384 122.349 418.09 122.154 419.933C120.336 429.512 118.951 439.163 117.437 448.794C116.499 447.788 116.958 446.431 117.043 445.231C118.401 435.003 119.78 424.781 121.093 414.547Z" fill="#FCFFFF"/>
<path d="M352.156 414.981C356.848 414.806 361.545 414.417 366.243 414.624C369.246 414.722 372.157 415.52 375.115 415.994C377.366 417.402 379.825 418.674 381.436 420.861C385.358 426.086 387.978 432.121 390.916 437.923C394.591 445.27 397.672 452.889 401.088 460.359C409.099 479.095 415.602 498.428 421.678 517.872L421.73 518.371C420.241 518.534 418.76 518.702 417.297 518.988C412.871 520.052 408.646 521.798 404.543 523.745C401.949 524.621 399.671 526.185 398.047 528.405C397.516 528.814 396.992 529.223 396.468 529.644C395.931 530.066 395.4 530.507 394.902 530.981C387.868 522.947 380.783 514.925 374.733 506.119C368.76 497.889 363.04 489.446 358.213 480.484C354.706 474.357 351.703 467.958 348.578 461.637C347.802 460.093 346.87 458.626 345.718 457.341C345.485 457.094 345.026 456.594 344.793 456.348C336.75 458.775 328.732 461.306 320.67 463.675C313.125 465.765 305.373 467.056 297.861 469.263C286.11 471.515 274.035 470.697 262.181 472.047C261.003 472.229 259.877 472.644 258.751 473.02L258.221 473.17C257.49 473.228 256.759 473.299 256.034 473.377C252.598 470.82 248.735 468.951 244.988 466.907C239.165 463.759 233.25 460.754 227.161 458.165C226.954 457.912 226.534 457.412 226.327 457.165C221.784 446.899 222.813 435.444 221.279 424.573C226.23 427.195 231.879 427.111 237.307 427.364C240.75 427.831 244.089 426.709 247.382 425.891C249.136 425.456 250.786 424.671 252.294 423.678C255.031 421.906 257.794 420.167 260.686 418.668C264.284 416.416 268.555 415.137 272.799 415.663C273.841 416.364 274.708 417.292 275.776 417.967C279.374 418.525 283.03 418.019 286.653 418.148C292.49 418.356 298.281 417.207 304.118 417.5C308.66 417.714 313.164 416.967 317.693 416.851C329.211 416.98 340.697 416 352.156 414.981Z" fill="#3F3D56"/>
<path d="M397.335 417.344C400.713 415.339 405.346 413.554 408.989 415.903C413.298 418.291 415.777 422.737 418.294 426.787C421.141 432.297 423.891 437.871 426.072 443.686C429.391 451.429 432.633 459.21 435.842 466.998C438.955 473.423 441.051 480.263 443.937 486.785C446.079 493.009 448.557 499.097 450.673 505.327C452.66 510.824 454.594 516.438 455.002 522.311C453.242 522.032 451.43 521.863 449.703 522.402C448.04 522.804 446.409 523.317 444.759 523.739C442.21 524.128 439.867 525.225 437.551 526.302C430.97 518.67 424.816 510.623 419.691 501.933C418.876 500.576 417.757 499.467 416.67 498.35C414.347 493.541 412.91 488.382 411.014 483.404C408.115 475.305 404.867 467.335 401.606 459.372C399.095 452.35 395.756 445.659 392.657 438.884C391.55 436.281 389.376 433.763 389.971 430.758C390.761 425.651 392.65 420.122 397.335 417.344Z" fill="#3F3D56"/>
<path d="M124.73 417.357C127.655 417.039 130.579 416.656 133.498 416.247C132.689 418.324 131.925 420.413 131.22 422.529C129.013 420.861 126.897 419.064 124.73 417.357Z" fill="#F2FCFF"/>
<path d="M474.395 425.534C469.645 425.002 470.014 415.812 474.926 416.007C507.512 415.78 540.105 415.896 572.692 416.026C575.28 415.682 575.824 418.596 575.953 420.556C576.173 422.399 575.662 424.891 573.546 425.32C570.201 425.807 566.797 425.398 563.432 425.618C563.406 426.559 563.4 427.507 563.419 428.461C563.264 427.565 563.089 426.683 562.934 425.807C560.113 425.729 557.291 425.709 554.47 425.735C546.188 425.644 537.905 425.404 529.623 425.638C529.409 425.638 528.969 425.631 528.749 425.631C525.468 425.54 522.181 425.547 518.901 425.618H518.299C511.835 425.411 505.364 425.592 498.9 425.482C497.01 425.443 495.127 425.625 493.27 425.943C490.229 425.618 487.175 425.657 484.127 425.729C480.885 425.69 477.617 425.949 474.395 425.534Z" fill="#E6A78A"/>
<path d="M484.127 425.729C487.175 425.657 490.229 425.618 493.27 425.943C492.901 429.577 492.358 433.192 491.743 436.794C488.851 436.8 485.965 436.833 483.079 436.904C483.331 433.166 483.894 429.467 484.127 425.729Z" fill="#946D60"/>
<path d="M554.47 425.735C557.291 425.709 560.113 425.729 562.934 425.807C563.089 426.683 563.264 427.565 563.419 428.461C563.749 431.219 564.066 433.99 564.26 436.774C561.387 436.742 558.514 436.8 555.654 437.002C555.13 433.257 554.69 429.506 554.47 425.735Z" fill="#936B60"/>
<path d="M483.079 436.904C485.965 436.833 488.851 436.8 491.743 436.794C487.349 468.847 482.652 500.862 478.679 532.974C478.381 535.154 478.032 537.328 477.566 539.483L477.404 540.119C475.864 540.184 474.324 540.197 472.79 540.184V539.437C472.771 537.432 472.816 535.427 472.997 533.434C476.343 501.258 479.591 469.068 483.079 436.904Z" fill="#E5A688"/>
<path d="M555.654 437.002C558.514 436.8 561.387 436.742 564.26 436.774C565.276 449.43 566.486 462.078 567.91 474.695C570.097 496.28 572.032 517.891 574.051 539.496C573.824 539.606 573.384 539.84 573.164 539.957C571.883 540.995 570.291 540.411 568.919 539.957L568.777 539.321C567.586 533.285 567.127 527.146 566.312 521.065C564.623 508.494 563.193 495.891 561.523 483.32C560.831 475.902 559.601 468.555 558.715 461.163C557.725 453.103 556.728 445.049 555.654 437.002Z" fill="#E5A78A"/>
<path d="M216.258 455.251C219.94 456.01 223.59 456.964 227.161 458.165C233.25 460.754 239.165 463.759 244.988 466.907C248.735 468.951 252.598 470.82 256.034 473.377C251.582 474.773 247.227 476.512 243.073 478.634C238.362 475.96 233.367 473.786 228.928 470.645C223.35 466.985 217.837 462.014 216.258 455.251Z" fill="#540604"/>
<path d="M320.67 463.675C328.732 461.306 336.75 458.775 344.793 456.348C345.285 459.177 345.951 462.001 345.925 464.895C338.484 466.829 330.861 467.932 323.245 468.828C317.829 469.386 312.426 470.165 306.978 470.269C303.95 469.691 300.727 470.626 297.861 469.263C305.373 467.056 313.125 465.765 320.67 463.675Z" fill="#2E3E5C"/>
<path d="M345.718 457.341C346.87 458.626 347.802 460.092 348.578 461.637C351.703 467.958 354.706 474.357 358.213 480.484C363.04 489.446 368.76 497.889 374.733 506.119C380.783 514.925 387.868 522.947 394.902 530.981C393.459 533.369 392.89 536.134 392.443 538.853C389.428 536.537 386.982 533.597 384.504 530.741C379.249 524.667 374.629 518.086 370.003 511.525C362.296 500.544 356.007 488.622 350.778 476.272C349.238 472.488 347.627 468.698 346.786 464.681C346.294 462.254 346.068 459.787 345.718 457.341Z" fill="#2D405C"/>
<path d="M98.2385 471.969C106.275 467.66 114.661 464.064 122.782 459.924C122.128 468.192 121.883 476.486 122.562 484.767C113.6 482.456 105.486 477.628 98.2385 471.969Z" fill="black"/>
<path d="M416.67 498.35C417.757 499.466 418.876 500.576 419.692 501.933C424.816 510.622 430.97 518.67 437.551 526.302C439.867 525.225 442.21 524.128 444.759 523.739C441.168 525.874 437.421 527.736 433.966 530.105C431.481 531.981 429.113 534.038 426.389 535.57C424.48 531.455 422.189 527.535 420.267 523.44C420.138 523.09 419.873 522.402 419.737 522.058C420.61 520.961 421.782 519.89 421.73 518.371L421.678 517.872C421.329 511.064 417.349 505.113 416.67 498.35Z" fill="#2E3F5C"/>
<path d="M417.297 518.988C418.76 518.702 420.241 518.534 421.73 518.371C421.781 519.89 420.61 520.961 419.737 522.058C419.258 520.799 418.598 519.527 417.297 518.988Z" fill="#0E121E"/>
<path d="M404.543 523.745C408.646 521.798 412.871 520.052 417.297 518.988C418.598 519.526 419.258 520.798 419.737 522.057C419.873 522.401 420.138 523.089 420.267 523.44C416.074 523.706 411.376 523.745 408.063 526.743C404.906 529.196 403.741 533.162 402.447 536.777C400.325 534.512 397.917 532.441 396.468 529.644C396.992 529.222 397.516 528.813 398.047 528.405C400.273 526.938 402.408 525.341 404.543 523.745Z" fill="#A95D40"/>
<path d="M444.759 523.738C446.409 523.317 448.04 522.804 449.703 522.402C450.563 522.337 451.424 522.291 452.297 522.259C452.705 523.323 453.113 524.394 453.527 525.471C446.305 526.198 440.915 531.448 435.939 536.225C434.878 534.33 432.685 532.428 433.966 530.105C437.421 527.736 441.168 525.874 444.759 523.738Z" fill="#A95D3E"/>
<path d="M408.063 526.743C411.376 523.745 416.074 523.706 420.267 523.44C422.189 527.535 424.48 531.455 426.389 535.57C426.893 536.608 427.405 537.64 427.98 538.659C426.725 541.956 424.344 544.85 421.031 546.206C416.482 548.471 411.221 547.952 406.414 546.953C405.359 544.707 404.453 542.39 403.819 539.989C403.482 538.866 403.036 537.776 402.447 536.777C403.741 533.162 404.906 529.196 408.063 526.743Z" fill="#CC7D63"/>
<path d="M435.939 536.225C440.915 531.448 446.305 526.198 453.527 525.471C454.09 526.944 454.64 528.431 455.293 529.878C455.63 530.605 455.999 531.312 456.419 532.013C456.109 536.128 453.268 539.463 449.761 541.365C446.344 543.409 441.582 544.577 438.165 541.936C437.835 541.391 437.512 540.852 437.188 540.32C437.111 539.554 437.033 538.782 436.923 538.029C436.612 537.413 436.282 536.809 435.939 536.225Z" fill="#C97C63"/>
<path d="M510.463 539.217C510.683 538.276 510.922 537.348 511.136 536.413C511.233 536.699 511.44 537.276 511.544 537.562C511.66 537.984 511.886 538.827 512.003 539.249C519.263 539.321 526.53 539.334 533.803 539.269C533.855 538.983 533.965 538.412 534.023 538.127C534.159 537.711 534.418 536.893 534.553 536.485C534.728 537.4 534.935 538.321 535.149 539.249C546.356 539.379 557.57 539.172 568.777 539.321L568.919 539.957C538.416 540.145 507.913 540.164 477.404 540.119L477.566 539.483C488.527 539.373 499.501 539.347 510.463 539.217Z" fill="#8D9EB7"/>
<path d="M429.029 540.106C431.721 539.678 434.348 538.925 436.923 538.029C437.033 538.782 437.111 539.554 437.188 540.32C435.603 541.086 434.056 541.917 432.562 542.832C431.352 541.956 430.148 541.08 429.029 540.106Z" fill="#DBA40B"/>
<path d="M142.557 538.944C142.731 539.158 143.074 539.587 143.249 539.801C141.457 540.086 139.638 540.242 137.827 540.197C115.399 539.788 92.965 540.112 70.5374 539.944L70.5309 539.321C86.9342 539.262 103.331 539.269 119.734 539.295C124.044 539.301 128.353 539.301 132.669 539.457C135.963 539.489 139.341 539.905 142.557 538.944Z" fill="#8397B7"/>
<path d="M573.164 539.957C573.384 539.84 573.824 539.606 574.051 539.496C580.198 538.97 586.487 539.418 592.693 539.334L592.699 539.95C586.19 539.989 579.674 540.158 573.164 539.957Z" fill="#8A98B3"/>
<path d="M432.562 542.832C434.056 541.917 435.603 541.086 437.188 540.32C437.512 540.852 437.835 541.391 438.165 541.936C438.424 543.468 438.547 545.019 438.644 546.583C436.496 545.532 434.477 544.247 432.562 542.832Z" fill="#FFFFF9"/>
</svg>
